RedHatMono-BoldItalic.ufo
<glyph name="numbersign" format="2">
  <advance width="600"/>
  <unicode hex="0023"/>
  <outline>
    <contour>
      <point x="-56" y="0" type="line"/>
      <point x="77" y="0" type="line"/>
      <point x="179" y="184" type="line"/>
      <point x="275" y="184" type="line"/>
      <point x="173" y="0" type="line"/>
      <point x="305" y="0" type="line"/>
      <point x="407" y="184" type="line"/>
      <point x="548" y="184" type="line"/>
      <point x="572" y="293" type="line"/>
      <point x="468" y="293" type="line"/>
      <point x="531" y="407" type="line"/>
      <point x="642" y="407" type="line"/>
      <point x="666" y="516" type="line"/>
      <point x="592" y="516" type="line"/>
      <point x="694" y="700" type="line"/>
      <point x="562" y="700" type="line"/>
      <point x="460" y="516" type="line"/>
      <point x="364" y="516" type="line"/>
      <point x="466" y="700" type="line"/>
      <point x="333" y="700" type="line"/>
      <point x="231" y="516" type="line"/>
      <point x="89" y="516" type="line"/>
      <point x="65" y="407" type="line"/>
      <point x="170" y="407" type="line"/>
      <point x="107" y="293" type="line"/>
      <point x="-4" y="293" type="line"/>
      <point x="-28" y="184" type="line"/>
      <point x="46" y="184" type="line"/>
    </contour>
    <contour>
      <point x="240" y="293" type="line"/>
      <point x="303" y="407" type="line"/>
      <point x="399" y="407" type="line"/>
      <point x="336" y="293" type="line"/>
    </contour>
  </outline>
</glyph>
<glyph name="ampersand" format="2">
  <advance width="600"/>
  <unicode hex="0026"/>
  <outline>
    <contour>
      <point x="459" y="-19" type="curve"/>
      <point x="565" y="72" type="line"/>
      <point x="546" y="89"/>
      <point x="528" y="107"/>
      <point x="495" y="142" type="curve"/>
      <point x="533" y="198"/>
      <point x="563" y="268"/>
      <point x="582" y="351" type="curve"/>
      <point x="463" y="371" type="line"/>
      <point x="451" y="319"/>
      <point x="435" y="273"/>
      <point x="413" y="235" type="curve"/>
      <point x="385" y="269"/>
      <point x="358" y="306"/>
      <point x="332" y="345" type="curve"/>
      <point x="457" y="400"/>
      <point x="509" y="460"/>
      <point x="509" y="548" type="curve" smooth="yes"/>
      <point x="509" y="643"/>
      <point x="432" y="711"/>
      <point x="323" y="711" type="curve" smooth="yes"/>
      <point x="205" y="711"/>
      <point x="122" y="631"/>
      <point x="122" y="516" type="curve" smooth="yes"/>
      <point x="122" y="473"/>
      <point x="132" y="435"/>
      <point x="156" y="385" type="curve"/>
      <point x="51" y="332"/>
      <point x="3" y="265"/>
      <point x="3" y="172" type="curve" smooth="yes"/>
      <point x="3" y="62"/>
      <point x="90" y="-10"/>
      <point x="221" y="-10" type="curve" smooth="yes"/>
      <point x="285" y="-10"/>
      <point x="345" y="8"/>
      <point x="398" y="43" type="curve"/>
      <point x="413" y="27"/>
      <point x="429" y="10"/>
    </contour>
    <contour>
      <point x="227" y="106" type="curve" smooth="yes"/>
      <point x="175" y="106"/>
      <point x="138" y="139"/>
      <point x="138" y="186" type="curve" smooth="yes"/>
      <point x="138" y="226"/>
      <point x="161" y="259"/>
      <point x="210" y="288" type="curve"/>
      <point x="240" y="239"/>
      <point x="278" y="186"/>
      <point x="321" y="133" type="curve"/>
      <point x="291" y="115"/>
      <point x="259" y="106"/>
    </contour>
    <contour>
      <point x="278" y="438" type="curve"/>
      <point x="262" y="470"/>
      <point x="255" y="495"/>
      <point x="255" y="522" type="curve" smooth="yes"/>
      <point x="255" y="569"/>
      <point x="282" y="602"/>
      <point x="321" y="602" type="curve" smooth="yes"/>
      <point x="356" y="602"/>
      <point x="381" y="577"/>
      <point x="381" y="542" type="curve" smooth="yes"/>
      <point x="381" y="501"/>
      <point x="352" y="471"/>
    </contour>
  </outline>
</glyph>
<glyph name="quotesingle" format="2">
  <advance width="600"/>
  <unicode hex="0027"/>
  <outline>
    <contour>
      <point x="282" y="440" type="line"/>
      <point x="395" y="440" type="line"/>
      <point x="478" y="750" type="line"/>
      <point x="329" y="750" type="line"/>
    </contour>
  </outline>
</glyph>
<glyph name="parenleft" format="2">
  <advance width="600"/>
  <unicode hex="0028"/>
  <outline>
    <contour>
      <point x="311" y="-221" type="curve"/>
      <point x="410" y="-123" type="line"/>
      <point x="312" y="-55"/>
      <point x="253" y="57"/>
      <point x="253" y="175" type="curve" smooth="yes"/>
      <point x="253" y="341"/>
      <point x="346" y="496"/>
      <point x="564" y="598" type="curve"/>
      <point x="500" y="711" type="line"/>
      <point x="221" y="591"/>
      <point x="106" y="373"/>
      <point x="106" y="164" type="curve" smooth="yes"/>
      <point x="106" y="3"/>
      <point x="182" y="-143"/>
    </contour>
  </outline>
</glyph>
<glyph name="parenright" format="2">
  <advance width="600"/>
  <unicode hex="0029"/>
  <outline>
    <contour>
      <point x="282" y="707" type="curve"/>
      <point x="183" y="609" type="line"/>
      <point x="281" y="541"/>
      <point x="340" y="429"/>
      <point x="340" y="311" type="curve" smooth="yes"/>
      <point x="340" y="145"/>
      <point x="247" y="-10"/>
      <point x="29" y="-112" type="curve"/>
      <point x="93" y="-225" type="line"/>
      <point x="372" y="-105"/>
      <point x="487" y="113"/>
      <point x="487" y="322" type="curve" smooth="yes"/>
      <point x="487" y="483"/>
      <point x="411" y="629"/>
    </contour>
  </outline>
</glyph>
<glyph name="asterisk" format="2">
  <advance width="600"/>
  <unicode hex="002A"/>
  <outline>
    <contour>
      <point x="260" y="307" type="line"/>
      <point x="356" y="307" type="line"/>
      <point x="376" y="411" type="line"/>
      <point x="453" y="344" type="line"/>
      <point x="523" y="425" type="line"/>
      <point x="438" y="494" type="line"/>
      <point x="556" y="554" type="line"/>
      <point x="519" y="644" type="line"/>
      <point x="413" y="587" type="line"/>
      <point x="438" y="700" type="line"/>
      <point x="343" y="700" type="line"/>
      <point x="321" y="592" type="line"/>
      <point x="241" y="661" type="line"/>
      <point x="173" y="582" type="line"/>
      <point x="262" y="509" type="line"/>
      <point x="148" y="453" type="line"/>
      <point x="182" y="361" type="line"/>
      <point x="284" y="415" type="line"/>
    </contour>
  </outline>
</glyph>
<glyph name="plus" format="2">
  <advance width="600"/>
  <unicode hex="002B"/>
  <outline>
    <contour>
      <point x="212" y="123" type="line"/>
      <point x="331" y="123" type="line"/>
      <point x="367" y="295" type="line"/>
      <point x="533" y="295" type="line"/>
      <point x="559" y="419" type="line"/>
      <point x="394" y="419" type="line"/>
      <point x="431" y="591" type="line"/>
      <point x="312" y="591" type="line"/>
      <point x="275" y="419" type="line"/>
      <point x="109" y="419" type="line"/>
      <point x="83" y="295" type="line"/>
      <point x="248" y="295" type="line"/>
    </contour>
  </outline>
</glyph>
<glyph name="comma" format="2">
  <advance width="600"/>
  <unicode hex="002C"/>
  <outline>
    <contour>
      <point x="67" y="-177" type="line"/>
      <point x="181" y="-177" type="line"/>
      <point x="366" y="127" type="line"/>
      <point x="191" y="127" type="line"/>
    </contour>
  </outline>
</glyph>
<glyph name="hyphen" format="2">
  <advance width="600"/>
  <unicode hex="002D"/>
  <outline>
    <contour>
      <point x="108" y="219" type="line"/>
      <point x="476" y="219" type="line"/>
      <point x="504" y="354" type="line"/>
      <point x="136" y="354" type="line"/>
    </contour>
  </outline>
</glyph>
<glyph name="period" format="2">
  <advance width="600"/>
  <unicode hex="002E"/>
  <outline>
    <contour>
      <point x="257" y="-11" type="curve" smooth="yes"/>
      <point x="319" y="-11"/>
      <point x="371" y="43"/>
      <point x="371" y="103" type="curve" smooth="yes"/>
      <point x="371" y="159"/>
      <point x="329" y="202"/>
      <point x="276" y="202" type="curve" smooth="yes"/>
      <point x="211" y="202"/>
      <point x="159" y="150"/>
      <point x="159" y="88" type="curve" smooth="yes"/>
      <point x="159" y="32"/>
      <point x="202" y="-11"/>
    </contour>
  </outline>
</glyph>
<glyph name="slash" format="2">
  <advance width="600"/>
  <unicode hex="002F"/>
  <outline>
    <contour>
      <point x="-125" y="-209" type="line"/>
      <point x="40" y="-209" type="line"/>
      <point x="635" y="700" type="line"/>
      <point x="471" y="700" type="line"/>
    </contour>
  </outline>
</glyph>
<glyph name="zero" format="2">
  <advance width="600"/>
  <unicode hex="0030"/>
  <outline>
    <contour>
      <point x="273" y="-9" type="curve" smooth="yes"/>
      <point x="452" y="-9"/>
      <point x="591" y="187"/>
      <point x="591" y="439" type="curve" smooth="yes"/>
      <point x="591" y="605"/>
      <point x="504" y="709"/>
      <point x="365" y="709" type="curve" smooth="yes"/>
      <point x="186" y="709"/>
      <point x="47" y="513"/>
      <point x="47" y="261" type="curve" smooth="yes"/>
      <point x="47" y="95"/>
      <point x="134" y="-9"/>
    </contour>
    <contour>
      <point x="279" y="125" type="curve" smooth="yes"/>
      <point x="262" y="125"/>
      <point x="247" y="130"/>
      <point x="235" y="140" type="curve"/>
      <point x="441" y="458" type="line"/>
      <point x="442" y="453"/>
      <point x="442" y="448"/>
      <point x="442" y="437" type="curve" smooth="yes"/>
      <point x="442" y="265"/>
      <point x="369" y="125"/>
    </contour>
    <contour>
      <point x="197" y="242" type="line"/>
      <point x="196" y="247"/>
      <point x="196" y="252"/>
      <point x="196" y="263" type="curve" smooth="yes"/>
      <point x="196" y="435"/>
      <point x="269" y="575"/>
      <point x="359" y="575" type="curve" smooth="yes"/>
      <point x="376" y="575"/>
      <point x="391" y="570"/>
      <point x="404" y="559" type="curve"/>
    </contour>
  </outline>
</glyph>
<glyph name="one" format="2">
  <advance width="600"/>
  <unicode hex="0031"/>
  <guideline x="49" y="176" angle="90.0" identifier="pXguCbBa3n"/>
  <outline>
    <contour>
      <point x="15" y="0" type="line"/>
      <point x="518" y="0" type="line"/>
      <point x="546" y="131" type="line"/>
      <point x="374" y="131" type="line"/>
      <point x="496" y="700" type="line"/>
      <point x="399" y="700" type="line"/>
      <point x="144" y="603" type="line"/>
      <point x="114" y="461" type="line"/>
      <point x="307" y="534" type="line"/>
      <point x="220" y="131" type="line"/>
      <point x="43" y="131" type="line"/>
    </contour>
  </outline>
</glyph>
<glyph name="three" format="2">
  <advance width="600"/>
  <unicode hex="0033"/>
  <outline>
    <contour>
      <point x="276" y="-10" type="curve" smooth="yes"/>
      <point x="435" y="-10"/>
      <point x="559" y="84"/>
      <point x="559" y="203" type="curve" smooth="yes"/>
      <point x="559" y="272"/>
      <point x="519" y="320"/>
      <point x="446" y="341" type="curve"/>
      <point x="542" y="362"/>
      <point x="610" y="433"/>
      <point x="610" y="525" type="curve" smooth="yes"/>
      <point x="610" y="633"/>
      <point x="508" y="710"/>
      <point x="365" y="710" type="curve" smooth="yes"/>
      <point x="272" y="710"/>
      <point x="175" y="674"/>
      <point x="107" y="614" type="curve"/>
      <point x="183" y="508" type="line"/>
      <point x="238" y="551"/>
      <point x="298" y="574"/>
      <point x="355" y="574" type="curve" smooth="yes"/>
      <point x="413" y="574"/>
      <point x="453" y="544"/>
      <point x="453" y="500" type="curve" smooth="yes"/>
      <point x="453" y="447"/>
      <point x="405" y="411"/>
      <point x="335" y="411" type="curve" smooth="yes"/>
      <point x="272" y="411" type="line"/>
      <point x="245" y="283" type="line"/>
      <point x="314" y="283" type="line" smooth="yes"/>
      <point x="375" y="283"/>
      <point x="409" y="259"/>
      <point x="409" y="216" type="curve" smooth="yes"/>
      <point x="409" y="163"/>
      <point x="356" y="126"/>
      <point x="279" y="126" type="curve" smooth="yes"/>
      <point x="214" y="126"/>
      <point x="164" y="153"/>
      <point x="115" y="216" type="curve"/>
      <point x="3" y="131" type="line"/>
      <point x="55" y="45"/>
      <point x="161" y="-10"/>
    </contour>
  </outline>
</glyph>
<glyph name="four" format="2">
  <advance width="600"/>
  <unicode hex="0034"/>
  <outline>
    <contour>
      <point x="315" y="0" type="line"/>
      <point x="464" y="0" type="line"/>
      <point x="497" y="157" type="line"/>
      <point x="572" y="157" type="line"/>
      <point x="600" y="288" type="line"/>
      <point x="525" y="288" type="line"/>
      <point x="613" y="700" type="line"/>
      <point x="443" y="700" type="line"/>
      <point x="19" y="284" type="line"/>
      <point x="-7" y="157" type="line"/>
      <point x="348" y="157" type="line"/>
    </contour>
    <contour>
      <point x="194" y="288" type="line"/>
      <point x="425" y="514" type="line"/>
      <point x="376" y="288" type="line"/>
    </contour>
  </outline>
</glyph>
<glyph name="greater" format="2">
  <advance width="600"/>
  <unicode hex="003E"/>
  <outline>
    <contour>
      <point x="248" y="652" type="line"/>
      <point x="148" y="561" type="line"/>
      <point x="352" y="353" type="line"/>
      <point x="53" y="140" type="line"/>
      <point x="117" y="43" type="line"/>
      <point x="539" y="348" type="line"/>
    </contour>
  </outline>
</glyph>
<glyph name="question" format="2">
  <advance width="600"/>
  <unicode hex="003F"/>
  <outline>
    <contour>
      <point x="204" y="244" type="curve"/>
      <point x="331" y="244" type="line"/>
      <point x="340" y="331"/>
      <point x="581" y="347"/>
      <point x="581" y="539" type="curve" smooth="yes"/>
      <point x="581" y="640"/>
      <point x="494" y="710"/>
      <point x="369" y="710" type="curve" smooth="yes"/>
      <point x="264" y="710"/>
      <point x="163" y="652"/>
      <point x="109" y="555" type="curve"/>
      <point x="222" y="499" type="line"/>
      <point x="248" y="545"/>
      <point x="297" y="575"/>
      <point x="348" y="575" type="curve" smooth="yes"/>
      <point x="398" y="575"/>
      <point x="429" y="552"/>
      <point x="429" y="515" type="curve" smooth="yes"/>
      <point x="429" y="408"/>
      <point x="226" y="421"/>
    </contour>
    <contour>
      <point x="233" y="-11" type="curve" smooth="yes"/>
      <point x="289" y="-11"/>
      <point x="339" y="42"/>
      <point x="339" y="101" type="curve" smooth="yes"/>
      <point x="339" y="151"/>
      <point x="304" y="190"/>
      <point x="257" y="190" type="curve" smooth="yes"/>
      <point x="199" y="190"/>
      <point x="149" y="139"/>
      <point x="149" y="78" type="curve" smooth="yes"/>
      <point x="149" y="28"/>
      <point x="184" y="-11"/>
    </contour>
  </outline>
</glyph>
<glyph name="at" format="2">
  <advance width="600"/>
  <unicode hex="0040"/>
  <outline>
    <contour>
      <point x="255" y="-144" type="curve" smooth="yes"/>
      <point x="324" y="-144"/>
      <point x="405" y="-118"/>
      <point x="460" y="-85" type="curve"/>
      <point x="433" y="-36" type="line"/>
      <point x="384" y="-65"/>
      <point x="318" y="-87"/>
      <point x="257" y="-87" type="curve" smooth="yes"/>
      <point x="145" y="-87"/>
      <point x="60" y="-12"/>
      <point x="60" y="150" type="curve" smooth="yes"/>
      <point x="60" y="356"/>
      <point x="195" y="527"/>
      <point x="345" y="527" type="curve" smooth="yes"/>
      <point x="457" y="527"/>
      <point x="532" y="448"/>
      <point x="532" y="318" type="curve" smooth="yes"/>
      <point x="532" y="196"/>
      <point x="486" y="108"/>
      <point x="438" y="108" type="curve" smooth="yes"/>
      <point x="421" y="108"/>
      <point x="416" y="119"/>
      <point x="421" y="140" type="curve" smooth="yes"/>
      <point x="474" y="371" type="line"/>
      <point x="384" y="371" type="line"/>
      <point x="379" y="347" type="line"/>
      <point x="358" y="370"/>
      <point x="329" y="383"/>
      <point x="293" y="383" type="curve" smooth="yes"/>
      <point x="203" y="383"/>
      <point x="127" y="292"/>
      <point x="127" y="183" type="curve" smooth="yes"/>
      <point x="127" y="103"/>
      <point x="181" y="45"/>
      <point x="251" y="45" type="curve" smooth="yes"/>
      <point x="286" y="45"/>
      <point x="320" y="58"/>
      <point x="348" y="79" type="curve"/>
      <point x="363" y="59"/>
      <point x="389" y="49"/>
      <point x="421" y="49" type="curve" smooth="yes"/>
      <point x="512" y="49"/>
      <point x="589" y="144"/>
      <point x="589" y="322" type="curve" smooth="yes"/>
      <point x="589" y="475"/>
      <point x="487" y="584"/>
      <point x="347" y="584" type="curve" smooth="yes"/>
      <point x="152" y="584"/>
      <point x="1" y="373"/>
      <point x="1" y="145" type="curve" smooth="yes"/>
      <point x="1" y="-36"/>
      <point x="103" y="-144"/>
    </contour>
    <contour>
      <point x="278" y="126" type="curve" smooth="yes"/>
      <point x="241" y="126"/>
      <point x="215" y="150"/>
      <point x="215" y="193" type="curve" smooth="yes"/>
      <point x="215" y="252"/>
      <point x="252" y="300"/>
      <point x="299" y="300" type="curve" smooth="yes"/>
      <point x="324" y="300"/>
      <point x="346" y="285"/>
      <point x="358" y="258" type="curve"/>
      <point x="335" y="158" type="line" smooth="yes"/>
      <point x="334" y="155"/>
      <point x="334" y="151"/>
      <point x="333" y="148" type="curve"/>
      <point x="316" y="133"/>
      <point x="297" y="126"/>
    </contour>
  </outline>
</glyph>
<glyph name="B" format="2">
  <advance width="600"/>
  <unicode hex="0042"/>
  <outline>
    <contour>
      <point x="17" y="0" type="line"/>
      <point x="300" y="0" type="line" smooth="yes"/>
      <point x="444" y="0"/>
      <point x="559" y="96"/>
      <point x="559" y="215" type="curve" smooth="yes"/>
      <point x="559" y="276"/>
      <point x="523" y="326"/>
      <point x="465" y="354" type="curve"/>
      <point x="541" y="389"/>
      <point x="593" y="456"/>
      <point x="593" y="534" type="curve" smooth="yes"/>
      <point x="593" y="633"/>
      <point x="511" y="700"/>
      <point x="389" y="700" type="curve" smooth="yes"/>
      <point x="166" y="700" type="line"/>
    </contour>
    <contour>
      <point x="274" y="419" type="line"/>
      <point x="305" y="563" type="line"/>
      <point x="351" y="563" type="line" smooth="yes"/>
      <point x="394" y="563"/>
      <point x="420" y="540"/>
      <point x="420" y="501" type="curve" smooth="yes"/>
      <point x="420" y="454"/>
      <point x="382" y="419"/>
      <point x="331" y="419" type="curve" smooth="yes"/>
    </contour>
    <contour>
      <point x="214" y="137" type="line"/>
      <point x="247" y="291" type="line"/>
      <point x="315" y="291" type="line" smooth="yes"/>
      <point x="362" y="291"/>
      <point x="390" y="266"/>
      <point x="390" y="225" type="curve" smooth="yes"/>
      <point x="390" y="174"/>
      <point x="350" y="137"/>
      <point x="295" y="137" type="curve" smooth="yes"/>
    </contour>
  </outline>
</glyph>
<glyph name="C" format="2">
  <advance width="600"/>
  <unicode hex="0043"/>
  <guideline x="221" y="276" angle="0.0" identifier="XzmC9agYa3"/>
  <anchor x="365" y="700" name="top"/>
  <anchor x="276" y="0" name="bottom"/>
  <outline>
    <contour>
      <point x="278" y="-9" type="curve" smooth="yes"/>
      <point x="415" y="-9"/>
      <point x="514" y="91"/>
      <point x="563" y="229" type="curve"/>
      <point x="413" y="275" type="line"/>
      <point x="388" y="198"/>
      <point x="348" y="143"/>
      <point x="291" y="143" type="curve" smooth="yes"/>
      <point x="244" y="143"/>
      <point x="208" y="183"/>
      <point x="208" y="280" type="curve" smooth="yes"/>
      <point x="208" y="416"/>
      <point x="263" y="557"/>
      <point x="351" y="557" type="curve" smooth="yes"/>
      <point x="397" y="557"/>
      <point x="428" y="516"/>
      <point x="433" y="432" type="curve"/>
      <point x="601" y="458" type="line"/>
      <point x="586" y="625"/>
      <point x="487" y="709"/>
      <point x="360" y="709" type="curve" smooth="yes"/>
      <point x="163" y="709"/>
      <point x="38" y="495"/>
      <point x="38" y="266" type="curve" smooth="yes"/>
      <point x="38" y="87"/>
      <point x="144" y="-9"/>
    </contour>
  </outline>
</glyph>
<glyph name="D" format="2">
  <advance width="600"/>
  <unicode hex="0044"/>
  <anchor x="395" y="700" name="top"/>
  <outline>
    <contour>
      <point x="-3" y="0" type="line"/>
      <point x="226" y="0" type="line" smooth="yes"/>
      <point x="435" y="0"/>
      <point x="600" y="171"/>
      <point x="600" y="421" type="curve" smooth="yes"/>
      <point x="600" y="588"/>
      <point x="494" y="700"/>
      <point x="331" y="700" type="curve" smooth="yes"/>
      <point x="146" y="700" type="line"/>
    </contour>
    <contour>
      <point x="313" y="553" type="line" smooth="yes"/>
      <point x="389" y="553"/>
      <point x="430" y="513"/>
      <point x="430" y="419" type="curve" smooth="yes"/>
      <point x="430" y="262"/>
      <point x="349" y="147"/>
      <point x="229" y="147" type="curve" smooth="yes"/>
      <point x="200" y="147" type="line"/>
      <point x="287" y="553" type="line"/>
    </contour>
  </outline>
</glyph>
<glyph name="E" format="2">
  <advance width="600"/>
  <unicode hex="0045"/>
  <anchor x="418" y="700" name="top"/>
  <anchor x="506" y="0" name="bottom"/>
  <outline>
    <contour>
      <point x="17" y="0" type="line"/>
      <point x="506" y="0" type="line"/>
      <point x="538" y="144" type="line"/>
      <point x="216" y="144" type="line"/>
      <point x="245" y="283" type="line"/>
      <point x="450" y="283" type="line"/>
      <point x="480" y="423" type="line"/>
      <point x="275" y="423" type="line"/>
      <point x="303" y="556" type="line"/>
      <point x="619" y="556" type="line"/>
      <point x="651" y="700" type="line"/>
      <point x="166" y="700" type="line"/>
    </contour>
  </outline>
</glyph>
<glyph name="G" format="2">
  <advance width="600"/>
  <unicode hex="0047"/>
  <anchor x="368" y="700" name="top"/>
  <anchor x="286" y="0" name="bottom"/>
  <outline>
    <contour>
      <point x="291" y="-9" type="curve" smooth="yes"/>
      <point x="447" y="-9"/>
      <point x="573" y="141"/>
      <point x="597" y="357" type="curve" smooth="yes"/>
      <point x="602" y="402" type="line"/>
      <point x="336" y="402" type="line"/>
      <point x="306" y="258" type="line"/>
      <point x="412" y="258" type="line"/>
      <point x="395" y="187"/>
      <point x="353" y="143"/>
      <point x="303" y="143" type="curve" smooth="yes"/>
      <point x="245" y="143"/>
      <point x="208" y="194"/>
      <point x="208" y="275" type="curve" smooth="yes"/>
      <point x="208" y="431"/>
      <point x="272" y="557"/>
      <point x="351" y="557" type="curve" smooth="yes"/>
      <point x="389" y="557"/>
      <point x="416" y="528"/>
      <point x="427" y="475" type="curve"/>
      <point x="590" y="524" type="line"/>
      <point x="559" y="641"/>
      <point x="473" y="709"/>
      <point x="356" y="709" type="curve" smooth="yes"/>
      <point x="177" y="709"/>
      <point x="38" y="517"/>
      <point x="38" y="268" type="curve" smooth="yes"/>
      <point x="38" y="103"/>
      <point x="140" y="-9"/>
    </contour>
  </outline>
</glyph>
<glyph name="J" format="2">
  <advance width="600"/>
  <unicode hex="004A"/>
  <anchor x="565" y="700" name="top"/>
  <outline>
    <contour>
      <point x="280" y="-10" type="curve" smooth="yes"/>
      <point x="432" y="-10"/>
      <point x="522" y="84"/>
      <point x="554" y="235" type="curve" smooth="yes"/>
      <point x="653" y="700" type="line"/>
      <point x="481" y="700" type="line"/>
      <point x="385" y="248" type="line" smooth="yes"/>
      <point x="371" y="180"/>
      <point x="335" y="144"/>
      <point x="281" y="144" type="curve" smooth="yes"/>
      <point x="222" y="144"/>
      <point x="188" y="181"/>
      <point x="177" y="267" type="curve"/>
      <point x="11" y="236" type="line"/>
      <point x="22" y="72"/>
      <point x="131" y="-10"/>
    </contour>
  </outline>
</glyph>
<glyph name="K" format="2">
  <advance width="600"/>
  <unicode hex="004B"/>
  <anchor x="239" y="0" name="bottom"/>
  <outline>
    <contour>
      <point x="-16" y="0" type="line"/>
      <point x="152" y="0" type="line"/>
      <point x="218" y="310" type="line"/>
      <point x="341" y="0" type="line"/>
      <point x="530" y="0" type="line"/>
      <point x="367" y="362" type="line"/>
      <point x="674" y="700" type="line"/>
      <point x="479" y="700" type="line"/>
      <point x="241" y="420" type="line"/>
      <point x="301" y="700" type="line"/>
      <point x="133" y="700" type="line"/>
    </contour>
  </outline>
</glyph>
<glyph name="M" format="2">
  <advance width="600"/>
  <unicode hex="004D"/>
  <guideline x="356" y="369" angle="0.0" identifier="hyldUCzMAp"/>
  <outline>
    <contour>
      <point x="-15" y="0" type="line"/>
      <point x="128" y="0" type="line"/>
      <point x="226" y="460" type="line"/>
      <point x="281" y="169" type="line"/>
      <point x="456" y="453" type="line"/>
      <point x="360" y="0" type="line"/>
      <point x="505" y="0" type="line"/>
      <point x="654" y="700" type="line"/>
      <point x="471" y="700" type="line"/>
      <point x="347" y="484" type="line"/>
      <point x="314" y="700" type="line"/>
      <point x="134" y="700" type="line"/>
    </contour>
  </outline>
</glyph>
<glyph name="Q" format="2">
  <advance width="600"/>
  <unicode hex="0051"/>
  <outline>
    <contour>
      <point x="273" y="-11" type="curve" smooth="yes"/>
      <point x="309" y="-11"/>
      <point x="344" y="-4"/>
      <point x="376" y="10" type="curve"/>
      <point x="403" y="-39" type="line"/>
      <point x="544" y="-17" type="line"/>
      <point x="484" y="89" type="line"/>
      <point x="556" y="170"/>
      <point x="601" y="293"/>
      <point x="601" y="434" type="curve" smooth="yes"/>
      <point x="601" y="598"/>
      <point x="505" y="711"/>
      <point x="365" y="711" type="curve" smooth="yes"/>
      <point x="179" y="711"/>
      <point x="37" y="518"/>
      <point x="37" y="266" type="curve" smooth="yes"/>
      <point x="37" y="102"/>
      <point x="133" y="-11"/>
    </contour>
    <contour>
      <point x="287" y="141" type="curve" smooth="yes"/>
      <point x="237" y="141"/>
      <point x="207" y="189"/>
      <point x="207" y="271" type="curve" smooth="yes"/>
      <point x="207" y="433"/>
      <point x="270" y="559"/>
      <point x="351" y="559" type="curve" smooth="yes"/>
      <point x="401" y="559"/>
      <point x="431" y="511"/>
      <point x="431" y="429" type="curve" smooth="yes"/>
      <point x="431" y="357"/>
      <point x="419" y="292"/>
      <point x="398" y="242" type="curve"/>
      <point x="381" y="272" type="line"/>
      <point x="241" y="250" type="line"/>
      <point x="301" y="142" type="line"/>
      <point x="297" y="141"/>
      <point x="292" y="141"/>
    </contour>
  </outline>
</glyph>
<glyph name="R" format="2">
  <advance width="600"/>
  <unicode hex="0052"/>
  <anchor x="417" y="700" name="top"/>
  <anchor x="260" y="0" name="bottom"/>
  <outline>
    <contour>
      <point x="2" y="0" type="line"/>
      <point x="170" y="0" type="line"/>
      <point x="225" y="259" type="line"/>
      <point x="285" y="259" type="line"/>
      <point x="370" y="0" type="line"/>
      <point x="548" y="0" type="line"/>
      <point x="446" y="275" type="line"/>
      <point x="545" y="309"/>
      <point x="615" y="394"/>
      <point x="615" y="497" type="curve" smooth="yes"/>
      <point x="615" y="617"/>
      <point x="525" y="700"/>
      <point x="394" y="700" type="curve" smooth="yes"/>
      <point x="151" y="700" type="line"/>
    </contour>
    <contour>
      <point x="254" y="394" type="line"/>
      <point x="289" y="558" type="line"/>
      <point x="364" y="558" type="line" smooth="yes"/>
      <point x="412" y="558"/>
      <point x="443" y="529"/>
      <point x="443" y="482" type="curve" smooth="yes"/>
      <point x="443" y="431"/>
      <point x="402" y="394"/>
      <point x="347" y="394" type="curve" smooth="yes"/>
    </contour>
  </outline>
</glyph>
<glyph name="S" format="2">
  <advance width="600"/>
  <unicode hex="0053"/>
  <anchor x="353" y="700" name="top"/>
  <anchor x="288" y="0" name="bottom"/>
  <outline>
    <contour>
      <point x="307" y="-10" type="curve" smooth="yes"/>
      <point x="461" y="-10"/>
      <point x="575" y="86"/>
      <point x="575" y="223" type="curve" smooth="yes"/>
      <point x="575" y="445"/>
      <point x="244" y="399"/>
      <point x="244" y="504" type="curve" smooth="yes"/>
      <point x="244" y="545"/>
      <point x="281" y="571"/>
      <point x="336" y="571" type="curve" smooth="yes"/>
      <point x="405" y="571"/>
      <point x="465" y="542"/>
      <point x="523" y="489" type="curve"/>
      <point x="621" y="602" type="line"/>
      <point x="552" y="671"/>
      <point x="451" y="710"/>
      <point x="343" y="710" type="curve" smooth="yes"/>
      <point x="186" y="710"/>
      <point x="83" y="616"/>
      <point x="83" y="487" type="curve" smooth="yes"/>
      <point x="83" y="253"/>
      <point x="408" y="320"/>
      <point x="408" y="202" type="curve" smooth="yes"/>
      <point x="408" y="158"/>
      <point x="367" y="128"/>
      <point x="310" y="128" type="curve" smooth="yes"/>
      <point x="243" y="128"/>
      <point x="181" y="159"/>
      <point x="98" y="228" type="curve"/>
      <point x="10" y="106" type="line"/>
      <point x="99" y="25"/>
      <point x="204" y="-10"/>
    </contour>
  </outline>
</glyph>
<glyph name="T" format="2">
  <advance width="600"/>
  <unicode hex="0054"/>
  <anchor x="392" y="700" name="top"/>
  <anchor x="244" y="0" name="bottom"/>
  <outline>
    <contour>
      <point x="159" y="0" type="line"/>
      <point x="331" y="0" type="line"/>
      <point x="449" y="553" type="line"/>
      <point x="649" y="553" type="line"/>
      <point x="680" y="700" type="line"/>
      <point x="108" y="700" type="line"/>
      <point x="77" y="553" type="line"/>
      <point x="277" y="553" type="line"/>
    </contour>
  </outline>
</glyph>
<glyph name="V" format="2">
  <advance width="600"/>
  <unicode hex="0056"/>
  <outline>
    <contour>
      <point x="146" y="0" type="line"/>
      <point x="344" y="0" type="line"/>
      <point x="694" y="700" type="line"/>
      <point x="528" y="700" type="line"/>
      <point x="285" y="189" type="line"/>
      <point x="264" y="700" type="line"/>
      <point x="94" y="700" type="line"/>
    </contour>
  </outline>
</glyph>
<glyph name="X" format="2">
  <advance width="600"/>
  <unicode hex="0058"/>
  <outline>
    <contour>
      <point x="-48" y="0" type="line"/>
      <point x="136" y="0" type="line"/>
      <point x="292" y="212" type="line"/>
      <point x="367" y="0" type="line"/>
      <point x="538" y="0" type="line"/>
      <point x="409" y="348" type="line"/>
      <point x="682" y="700" type="line"/>
      <point x="497" y="700" type="line"/>
      <point x="358" y="511" type="line"/>
      <point x="292" y="700" type="line"/>
      <point x="122" y="700" type="line"/>
      <point x="241" y="375" type="line"/>
    </contour>
  </outline>
</glyph>
<glyph name="Y" format="2">
  <advance width="600"/>
  <unicode hex="0059"/>
  <anchor x="394" y="700" name="top"/>
  <outline>
    <contour>
      <point x="159" y="0" type="line"/>
      <point x="331" y="0" type="line"/>
      <point x="392" y="287" type="line"/>
      <point x="700" y="700" type="line"/>
      <point x="524" y="700" type="line"/>
      <point x="342" y="448" type="line"/>
      <point x="268" y="700" type="line"/>
      <point x="89" y="700" type="line"/>
      <point x="220" y="287" type="line"/>
    </contour>
  </outline>
</glyph>
<glyph name="asciicircum" format="2">
  <advance width="600"/>
  <unicode hex="005E"/>
  <outline>
    <contour>
      <point x="79" y="350" type="line"/>
      <point x="206" y="350" type="line"/>
      <point x="371" y="584" type="line"/>
      <point x="436" y="350" type="line"/>
      <point x="559" y="350" type="line"/>
      <point x="460" y="700" type="line"/>
      <point x="328" y="700" type="line"/>
    </contour>
  </outline>
</glyph>
<glyph name="c" format="2">
  <advance width="600"/>
  <unicode hex="0063"/>
  <anchor x="344" y="516" name="top"/>
  <anchor x="286" y="0" name="bottom"/>
  <outline>
    <contour>
      <point x="291" y="-11" type="curve" smooth="yes"/>
      <point x="392" y="-11"/>
      <point x="476" y="30"/>
      <point x="534" y="106" type="curve"/>
      <point x="437" y="192" type="line"/>
      <point x="403" y="152"/>
      <point x="363" y="127"/>
      <point x="313" y="127" type="curve" smooth="yes"/>
      <point x="246" y="127"/>
      <point x="197" y="172"/>
      <point x="197" y="243" type="curve" smooth="yes"/>
      <point x="197" y="322"/>
      <point x="250" y="385"/>
      <point x="330" y="385" type="curve" smooth="yes"/>
      <point x="387" y="385"/>
      <point x="429" y="349"/>
      <point x="451" y="307" type="curve"/>
      <point x="577" y="391" type="line"/>
      <point x="537" y="468"/>
      <point x="450" y="524"/>
      <point x="335" y="524" type="curve" smooth="yes"/>
      <point x="170" y="524"/>
      <point x="39" y="392"/>
      <point x="39" y="225" type="curve" smooth="yes"/>
      <point x="39" y="89"/>
      <point x="145" y="-11"/>
    </contour>
  </outline>
</glyph>
<glyph name="f" format="2">
  <advance width="600"/>
  <unicode hex="0066"/>
  <outline>
    <contour>
      <point x="134" y="0" type="line"/>
      <point x="296" y="0" type="line"/>
      <point x="379" y="391" type="line"/>
      <point x="577" y="391" type="line"/>
      <point x="604" y="516" type="line"/>
      <point x="405" y="516" type="line"/>
      <point x="413" y="553" type="line" smooth="yes"/>
      <point x="426" y="614"/>
      <point x="450" y="636"/>
      <point x="508" y="636" type="curve" smooth="yes"/>
      <point x="541" y="636"/>
      <point x="578" y="631"/>
      <point x="621" y="615" type="curve"/>
      <point x="650" y="749" type="line"/>
      <point x="613" y="763"/>
      <point x="551" y="774"/>
      <point x="504" y="774" type="curve" smooth="yes"/>
      <point x="369" y="774"/>
      <point x="286" y="709"/>
      <point x="259" y="582" type="curve" smooth="yes"/>
      <point x="245" y="516" type="line"/>
      <point x="93" y="516" type="line"/>
      <point x="66" y="391" type="line"/>
      <point x="218" y="391" type="line"/>
    </contour>
  </outline>
</glyph>
<glyph name="h" format="2">
  <advance width="600"/>
  <unicode hex="0068"/>
  <anchor x="240" y="700" name="top"/>
  <outline>
    <contour>
      <point x="12" y="0" type="line"/>
      <point x="171" y="0" type="line"/>
      <point x="248" y="358" type="line"/>
      <point x="275" y="385"/>
      <point x="303" y="397"/>
      <point x="333" y="397" type="curve" smooth="yes"/>
      <point x="387" y="397"/>
      <point x="415" y="356"/>
      <point x="402" y="297" type="curve" smooth="yes"/>
      <point x="338" y="0" type="line"/>
      <point x="497" y="0" type="line"/>
      <point x="569" y="337" type="line" smooth="yes"/>
      <point x="593" y="447"/>
      <point x="538" y="522"/>
      <point x="434" y="522" type="curve" smooth="yes"/>
      <point x="371" y="522"/>
      <point x="314" y="492"/>
      <point x="265" y="436" type="curve"/>
      <point x="330" y="737" type="line"/>
      <point x="165" y="712" type="line"/>
    </contour>
  </outline>
</glyph>
<glyph name="i" format="2">
  <advance width="600"/>
  <unicode hex="0069"/>
  <note>
Version created Wed Nov 11 16:21:20 2020
</note>
  <anchor x="366" y="516" name="top"/>
  <anchor x="450" y="0" name="bottom"/>
  <outline>
    <contour>
      <point x="379" y="596" type="curve" smooth="yes"/>
      <point x="441" y="596"/>
      <point x="492" y="647"/>
      <point x="492" y="709" type="curve" smooth="yes"/>
      <point x="492" y="759"/>
      <point x="452" y="798"/>
      <point x="402" y="798" type="curve" smooth="yes"/>
      <point x="343" y="798"/>
      <point x="290" y="745"/>
      <point x="290" y="684" type="curve" smooth="yes"/>
      <point x="290" y="634"/>
      <point x="328" y="596"/>
    </contour>
    <contour>
      <point x="377" y="-7" type="curve" smooth="yes"/>
      <point x="421" y="-7"/>
      <point x="476" y="2"/>
      <point x="501" y="14" type="curve"/>
      <point x="529" y="145" type="line"/>
      <point x="494" y="133"/>
      <point x="464" y="129"/>
      <point x="434" y="129" type="curve" smooth="yes"/>
      <point x="381" y="129"/>
      <point x="356" y="152"/>
      <point x="370" y="218" type="curve" smooth="yes"/>
      <point x="434" y="516" type="line"/>
      <point x="94" y="516" type="line"/>
      <point x="67" y="391" type="line"/>
      <point x="245" y="391" type="line"/>
      <point x="207" y="220" type="line" smooth="yes"/>
      <point x="174" y="72"/>
      <point x="241" y="-7"/>
    </contour>
  </outline>
</glyph>
<glyph name="k" format="2">
  <advance width="600"/>
  <unicode hex="006B"/>
  <anchor x="249" y="0" name="bottom"/>
  <outline>
    <contour>
      <point x="5" y="0" type="line"/>
      <point x="164" y="0" type="line"/>
      <point x="210" y="218" type="line"/>
      <point x="342" y="0" type="line"/>
      <point x="530" y="0" type="line"/>
      <point x="360" y="258" type="line"/>
      <point x="628" y="516" type="line"/>
      <point x="437" y="516" type="line"/>
      <point x="227" y="297" type="line"/>
      <point x="320" y="737" type="line"/>
      <point x="157" y="712" type="line"/>
    </contour>
  </outline>
</glyph>
<glyph name="l" format="2">
  <advance width="600"/>
  <unicode hex="006C"/>
  <guideline x="218" y="344" angle="77.99999999999999" color="0.999,0.001,0.001,0.999" identifier="fcRuPTquRh"/>
  <anchor x="365" y="700" name="top"/>
  <anchor x="313" y="0" name="bottom"/>
  <outline>
    <contour>
      <point x="358" y="-7" type="curve" smooth="yes"/>
      <point x="402" y="-7"/>
      <point x="456" y="2"/>
      <point x="482" y="14" type="curve"/>
      <point x="510" y="145" type="line"/>
      <point x="475" y="133"/>
      <point x="445" y="129"/>
      <point x="415" y="129" type="curve" smooth="yes"/>
      <point x="362" y="129"/>
      <point x="337" y="152"/>
      <point x="351" y="218" type="curve" smooth="yes"/>
      <point x="459" y="727" type="line"/>
      <point x="119" y="727" type="line"/>
      <point x="92" y="602" type="line"/>
      <point x="270" y="602" type="line"/>
      <point x="188" y="220" type="line" smooth="yes"/>
      <point x="156" y="72"/>
      <point x="222" y="-7"/>
    </contour>
  </outline>
</glyph>
<glyph name="m" format="2">
  <advance width="600"/>
  <unicode hex="006D"/>
  <outline>
    <contour>
      <point x="-22" y="0" type="line"/>
      <point x="110" y="0" type="line"/>
      <point x="194" y="396" type="line"/>
      <point x="204" y="404"/>
      <point x="214" y="407"/>
      <point x="225" y="407" type="curve" smooth="yes"/>
      <point x="251" y="407"/>
      <point x="262" y="384"/>
      <point x="254" y="350" type="curve" smooth="yes"/>
      <point x="180" y="0" type="line"/>
      <point x="312" y="0" type="line"/>
      <point x="393" y="383" type="line" smooth="yes"/>
      <point x="394" y="387"/>
      <point x="395" y="392"/>
      <point x="395" y="396" type="curve"/>
      <point x="404" y="404"/>
      <point x="415" y="407"/>
      <point x="426" y="407" type="curve" smooth="yes"/>
      <point x="453" y="407"/>
      <point x="463" y="384"/>
      <point x="455" y="350" type="curve" smooth="yes"/>
      <point x="381" y="0" type="line"/>
      <point x="513" y="0" type="line"/>
      <point x="597" y="393" type="line" smooth="yes"/>
      <point x="613" y="470"/>
      <point x="572" y="524"/>
      <point x="505" y="524" type="curve" smooth="yes"/>
      <point x="460" y="524"/>
      <point x="422" y="502"/>
      <point x="392" y="460" type="curve"/>
      <point x="379" y="500"/>
      <point x="347" y="524"/>
      <point x="303" y="524" type="curve" smooth="yes"/>
      <point x="268" y="524"/>
      <point x="237" y="506"/>
      <point x="211" y="473" type="curve"/>
      <point x="220" y="516" type="line"/>
      <point x="88" y="516" type="line"/>
    </contour>
  </outline>
</glyph>
<glyph name="n" format="2">
  <advance width="600"/>
  <unicode hex="006E"/>
  <guideline x="290" y="261" angle="90.0" identifier="ekDTT1ueO0"/>
  <anchor x="351" y="516" name="top"/>
  <anchor x="242" y="0" name="bottom"/>
  <outline>
    <contour>
      <point x="4" y="0" type="line"/>
      <point x="163" y="0" type="line"/>
      <point x="241" y="358" type="line"/>
      <point x="268" y="385"/>
      <point x="295" y="397"/>
      <point x="326" y="397" type="curve" smooth="yes"/>
      <point x="380" y="397"/>
      <point x="408" y="356"/>
      <point x="395" y="297" type="curve" smooth="yes"/>
      <point x="331" y="0" type="line"/>
      <point x="490" y="0" type="line"/>
      <point x="562" y="337" type="line" smooth="yes"/>
      <point x="586" y="447"/>
      <point x="531" y="522"/>
      <point x="427" y="522" type="curve" smooth="yes"/>
      <point x="364" y="522"/>
      <point x="306" y="492"/>
      <point x="258" y="436" type="curve"/>
      <point x="275" y="516" type="line"/>
      <point x="116" y="516" type="line"/>
    </contour>
  </outline>
</glyph>
<glyph name="o" format="2">
  <advance width="600"/>
  <unicode hex="006F"/>
  <anchor x="327" y="516" name="top"/>
  <outline>
    <contour>
      <point x="277" y="-10" type="curve" smooth="yes"/>
      <point x="435" y="-10"/>
      <point x="565" y="123"/>
      <point x="565" y="284" type="curve" smooth="yes"/>
      <point x="565" y="423"/>
      <point x="463" y="524"/>
      <point x="323" y="524" type="curve" smooth="yes"/>
      <point x="163" y="524"/>
      <point x="35" y="393"/>
      <point x="35" y="231" type="curve" smooth="yes"/>
      <point x="35" y="92"/>
      <point x="138" y="-10"/>
    </contour>
    <contour>
      <point x="286" y="127" type="curve" smooth="yes"/>
      <point x="228" y="127"/>
      <point x="191" y="170"/>
      <point x="191" y="239" type="curve" smooth="yes"/>
      <point x="191" y="323"/>
      <point x="245" y="389"/>
      <point x="313" y="389" type="curve" smooth="yes"/>
      <point x="372" y="389"/>
      <point x="409" y="347"/>
      <point x="409" y="280" type="curve" smooth="yes"/>
      <point x="409" y="192"/>
      <point x="357" y="127"/>
    </contour>
  </outline>
</glyph>
<glyph name="q" format="2">
  <advance width="600"/>
  <unicode hex="0071"/>
  <outline>
    <contour>
      <point x="282" y="-209" type="line"/>
      <point x="441" y="-209" type="line"/>
      <point x="595" y="516" type="line"/>
      <point x="438" y="516" type="line"/>
      <point x="426" y="457" type="line"/>
      <point x="397" y="496"/>
      <point x="345" y="519"/>
      <point x="291" y="519" type="curve" smooth="yes"/>
      <point x="150" y="519"/>
      <point x="31" y="384"/>
      <point x="31" y="226" type="curve" smooth="yes"/>
      <point x="31" y="99"/>
      <point x="106" y="-3"/>
      <point x="209" y="-3" type="curve" smooth="yes"/>
      <point x="256" y="-3"/>
      <point x="299" y="11"/>
      <point x="338" y="55" type="curve"/>
    </contour>
    <contour>
      <point x="279" y="124" type="curve" smooth="yes"/>
      <point x="219" y="124"/>
      <point x="186" y="173"/>
      <point x="186" y="236" type="curve" smooth="yes"/>
      <point x="186" y="322"/>
      <point x="241" y="389"/>
      <point x="315" y="389" type="curve" smooth="yes"/>
      <point x="349" y="389"/>
      <point x="379" y="375"/>
      <point x="401" y="350" type="curve"/>
      <point x="360" y="157" type="line"/>
      <point x="336" y="136"/>
      <point x="307" y="124"/>
    </contour>
  </outline>
</glyph>
<glyph name="r" format="2">
  <advance width="600"/>
  <unicode hex="0072"/>
  <anchor x="458" y="516" name="top"/>
  <anchor x="193" y="0" name="bottom"/>
  <outline>
    <contour>
      <point x="2" y="0" type="line"/>
      <point x="394" y="0" type="line"/>
      <point x="421" y="125" type="line"/>
      <point x="303" y="125" type="line"/>
      <point x="345" y="324" type="line"/>
      <point x="383" y="364"/>
      <point x="431" y="384"/>
      <point x="478" y="384" type="curve" smooth="yes"/>
      <point x="512" y="384"/>
      <point x="568" y="369"/>
      <point x="589" y="355" type="curve"/>
      <point x="621" y="505" type="line"/>
      <point x="601" y="519"/>
      <point x="579" y="526"/>
      <point x="541" y="526" type="curve" smooth="yes"/>
      <point x="470" y="526"/>
      <point x="414" y="487"/>
      <point x="360" y="393" type="curve"/>
      <point x="386" y="516" type="line"/>
      <point x="112" y="516" type="line"/>
      <point x="85" y="391" type="line"/>
      <point x="197" y="391" type="line"/>
      <point x="141" y="125" type="line"/>
      <point x="29" y="125" type="line"/>
    </contour>
  </outline>
</glyph>
<glyph name="s" format="2">
  <advance width="600"/>
  <unicode hex="0073"/>
  <anchor x="312" y="516" name="top"/>
  <anchor x="279" y="0" name="bottom"/>
  <outline>
    <contour>
      <point x="283" y="-11" type="curve" smooth="yes"/>
      <point x="413" y="-11"/>
      <point x="513" y="63"/>
      <point x="513" y="169" type="curve"/>
      <point x="513" y="354"/>
      <point x="228" y="296"/>
      <point x="228" y="371" type="curve" smooth="yes"/>
      <point x="228" y="395"/>
      <point x="251" y="408"/>
      <point x="296" y="408" type="curve" smooth="yes"/>
      <point x="351" y="408"/>
      <point x="409" y="383"/>
      <point x="465" y="339" type="curve"/>
      <point x="541" y="439" type="line"/>
      <point x="477" y="492"/>
      <point x="392" y="525"/>
      <point x="302" y="525" type="curve" smooth="yes"/>
      <point x="166" y="525"/>
      <point x="88" y="459"/>
      <point x="88" y="356" type="curve" smooth="yes"/>
      <point x="88" y="157"/>
      <point x="365" y="230"/>
      <point x="365" y="151" type="curve"/>
      <point x="365" y="126"/>
      <point x="334" y="108"/>
      <point x="290" y="108" type="curve" smooth="yes"/>
      <point x="231" y="108"/>
      <point x="169" y="130"/>
      <point x="101" y="187" type="curve"/>
      <point x="26" y="81" type="line"/>
      <point x="88" y="26"/>
      <point x="188" y="-11"/>
    </contour>
  </outline>
</glyph>
<glyph name="w" format="2">
  <advance width="600"/>
  <unicode hex="0077"/>
  <anchor x="354" y="516" name="top"/>
  <outline>
    <contour>
      <point x="57" y="0" type="line"/>
      <point x="186" y="0" type="line"/>
      <point x="310" y="307" type="line"/>
      <point x="305" y="0" type="line"/>
      <point x="433" y="0" type="line"/>
      <point x="640" y="516" type="line"/>
      <point x="516" y="516" type="line"/>
      <point x="411" y="224" type="line"/>
      <point x="412" y="516" type="line"/>
      <point x="300" y="516" type="line"/>
      <point x="176" y="222" type="line"/>
      <point x="194" y="516" type="line"/>
      <point x="69" y="516" type="line"/>
    </contour>
  </outline>
</glyph>
<glyph name="x" format="2">
  <advance width="600"/>
  <unicode hex="0078"/>
  <outline>
    <contour>
      <point x="-42" y="0" type="line"/>
      <point x="144" y="0" type="line"/>
      <point x="274" y="144" type="line"/>
      <point x="344" y="0" type="line"/>
      <point x="517" y="0" type="line"/>
      <point x="383" y="256" type="line"/>
      <point x="629" y="516" type="line"/>
      <point x="442" y="516" type="line"/>
      <point x="321" y="380" type="line"/>
      <point x="255" y="516" type="line"/>
      <point x="82" y="516" type="line"/>
      <point x="211" y="269" type="line"/>
    </contour>
  </outline>
</glyph>
<glyph name="y" format="2">
  <advance width="600"/>
  <unicode hex="0079"/>
  <anchor x="333" y="516" name="top"/>
  <outline>
    <contour>
      <point x="64" y="-219" type="curve" smooth="yes"/>
      <point x="162" y="-219"/>
      <point x="218" y="-178"/>
      <point x="278" y="-78" type="curve" smooth="yes"/>
      <point x="635" y="516" type="line"/>
      <point x="464" y="516" type="line"/>
      <point x="266" y="163" type="line"/>
      <point x="231" y="516" type="line"/>
      <point x="69" y="516" type="line"/>
      <point x="144" y="-16" type="line"/>
      <point x="132" y="-36" type="line" smooth="yes"/>
      <point x="111" y="-71"/>
      <point x="98" y="-79"/>
      <point x="61" y="-79" type="curve" smooth="yes"/>
      <point x="33" y="-79"/>
      <point x="-6" y="-69"/>
      <point x="-39" y="-54" type="curve"/>
      <point x="-68" y="-188" type="line"/>
      <point x="-27" y="-209"/>
      <point x="29" y="-219"/>
    </contour>
  </outline>
</glyph>
<glyph name="exclamdown" format="2">
  <advance width="600"/>
  <unicode hex="00A1"/>
  <outline>
    <contour>
      <point x="368" y="277" type="line"/>
      <point x="250" y="277" type="line"/>
      <point x="128" y="-208" type="line"/>
      <point x="284" y="-208" type="line"/>
    </contour>
    <contour>
      <point x="347" y="530" type="curve" smooth="yes"/>
      <point x="291" y="530"/>
      <point x="241" y="477"/>
      <point x="241" y="418" type="curve" smooth="yes"/>
      <point x="241" y="368"/>
      <point x="276" y="329"/>
      <point x="323" y="329" type="curve" smooth="yes"/>
      <point x="381" y="329"/>
      <point x="431" y="380"/>
      <point x="431" y="441" type="curve" smooth="yes"/>
      <point x="431" y="491"/>
      <point x="396" y="530"/>
    </contour>
  </outline>
</glyph>
<glyph name="cent" format="2">
  <advance width="600"/>
  <unicode hex="00A2"/>
  <outline>
    <contour>
      <point x="196" y="-111" type="line"/>
      <point x="272" y="-111" type="line"/>
      <point x="293" y="-11" type="line"/>
      <point x="294" y="-11"/>
      <point x="295" y="-11"/>
      <point x="296" y="-11" type="curve" smooth="yes"/>
      <point x="397" y="-11"/>
      <point x="481" y="30"/>
      <point x="539" y="106" type="curve"/>
      <point x="442" y="192" type="line"/>
      <point x="409" y="153"/>
      <point x="370" y="129"/>
      <point x="322" y="127" type="curve"/>
      <point x="376" y="378" type="line"/>
      <point x="412" y="366"/>
      <point x="440" y="338"/>
      <point x="456" y="307" type="curve"/>
      <point x="582" y="391" type="line"/>
      <point x="550" y="453"/>
      <point x="488" y="501"/>
      <point x="405" y="518" type="curve"/>
      <point x="428" y="625" type="line"/>
      <point x="352" y="625" type="line"/>
      <point x="331" y="524" type="line"/>
      <point x="170" y="519"/>
      <point x="44" y="389"/>
      <point x="44" y="225" type="curve" smooth="yes"/>
      <point x="44" y="114"/>
      <point x="114" y="27"/>
      <point x="219" y="-1" type="curve"/>
    </contour>
    <contour>
      <point x="202" y="243" type="curve" smooth="yes"/>
      <point x="202" y="310"/>
      <point x="240" y="365"/>
      <point x="300" y="381" type="curve"/>
      <point x="250" y="146" type="line"/>
      <point x="221" y="165"/>
      <point x="202" y="199"/>
    </contour>
  </outline>
</glyph>
<glyph name="sterling" format="2">
  <advance width="600"/>
  <unicode hex="00A3"/>
  <outline>
    <contour>
      <point x="389" y="-25" type="curve" smooth="yes"/>
      <point x="465" y="-25"/>
      <point x="524" y="15"/>
      <point x="581" y="102" type="curve"/>
      <point x="476" y="172" type="line"/>
      <point x="446" y="132"/>
      <point x="418" y="109"/>
      <point x="386" y="109" type="curve" smooth="yes"/>
      <point x="349" y="109"/>
      <point x="311" y="130"/>
      <point x="268" y="147" type="curve"/>
      <point x="295" y="181"/>
      <point x="307" y="224"/>
      <point x="307" y="274" type="curve" smooth="yes"/>
      <point x="307" y="278"/>
      <point x="307" y="283"/>
      <point x="307" y="287" type="curve"/>
      <point x="415" y="287" type="line"/>
      <point x="433" y="375" type="line"/>
      <point x="301" y="375" type="line"/>
      <point x="299" y="402"/>
      <point x="297" y="429"/>
      <point x="297" y="455" type="curve" smooth="yes"/>
      <point x="297" y="525"/>
      <point x="336" y="579"/>
      <point x="399" y="579" type="curve" smooth="yes"/>
      <point x="450" y="579"/>
      <point x="484" y="546"/>
      <point x="500" y="484" type="curve"/>
      <point x="640" y="518" type="line"/>
      <point x="612" y="638"/>
      <point x="526" y="711"/>
      <point x="401" y="711" type="curve" smooth="yes"/>
      <point x="257" y="711"/>
      <point x="149" y="607"/>
      <point x="149" y="462" type="curve" smooth="yes"/>
      <point x="149" y="434"/>
      <point x="151" y="404"/>
      <point x="154" y="375" type="curve"/>
      <point x="77" y="375" type="line"/>
      <point x="59" y="287" type="line"/>
      <point x="162" y="287" type="line"/>
      <point x="163" y="270"/>
      <point x="164" y="254"/>
      <point x="164" y="239" type="curve" smooth="yes"/>
      <point x="164" y="214"/>
      <point x="159" y="190"/>
      <point x="148" y="170" type="curve"/>
      <point x="73" y="164"/>
      <point x="12" y="117"/>
      <point x="-29" y="42" type="curve"/>
      <point x="79" y="-28" type="line"/>
      <point x="109" y="13"/>
      <point x="134" y="37"/>
      <point x="166" y="37" type="curve" smooth="yes"/>
      <point x="229" y="37"/>
      <point x="300" y="-25"/>
    </contour>
  </outline>
</glyph>
<glyph name="uni00A4" format="2">
  <advance width="600"/>
  <unicode hex="00A4"/>
  <outline>
    <contour>
      <point x="102" y="39" type="line"/>
      <point x="199" y="137" type="line"/>
      <point x="242" y="110"/>
      <point x="294" y="95"/>
      <point x="350" y="95" type="curve" smooth="yes"/>
      <point x="406" y="95"/>
      <point x="457" y="110"/>
      <point x="500" y="137" type="curve"/>
      <point x="598" y="38" type="line"/>
      <point x="675" y="115" type="line"/>
      <point x="579" y="211" type="line"/>
      <point x="610" y="254"/>
      <point x="627" y="307"/>
      <point x="627" y="364" type="curve" smooth="yes"/>
      <point x="627" y="422"/>
      <point x="609" y="476"/>
      <point x="578" y="519" type="curve"/>
      <point x="674" y="616" type="line"/>
      <point x="599" y="691" type="line"/>
      <point x="500" y="592" type="line"/>
      <point x="457" y="619"/>
      <point x="406" y="634"/>
      <point x="350" y="634" type="curve" smooth="yes"/>
      <point x="295" y="634"/>
      <point x="244" y="619"/>
      <point x="201" y="593" type="curve"/>
      <point x="103" y="692" type="line"/>
      <point x="26" y="615" type="line"/>
      <point x="121" y="518" type="line"/>
      <point x="91" y="475"/>
      <point x="73" y="422"/>
      <point x="73" y="364" type="curve" smooth="yes"/>
      <point x="73" y="306"/>
      <point x="91" y="253"/>
      <point x="122" y="210" type="curve"/>
      <point x="27" y="114" type="line"/>
    </contour>
    <contour>
      <point x="350" y="230" type="curve" smooth="yes"/>
      <point x="277" y="230"/>
      <point x="221" y="289"/>
      <point x="221" y="364" type="curve" smooth="yes"/>
      <point x="221" y="440"/>
      <point x="278" y="499"/>
      <point x="350" y="499" type="curve" smooth="yes"/>
      <point x="422" y="499"/>
      <point x="479" y="440"/>
      <point x="479" y="364" type="curve" smooth="yes"/>
      <point x="479" y="289"/>
      <point x="423" y="230"/>
    </contour>
  </outline>
</glyph>
<glyph name="yen" format="2">
  <advance width="600"/>
  <unicode hex="00A5"/>
  <outline>
    <contour>
      <point x="159" y="0" type="line"/>
      <point x="331" y="0" type="line"/>
      <point x="359" y="130" type="line"/>
      <point x="518" y="130" type="line"/>
      <point x="535" y="211" type="line"/>
      <point x="376" y="211" type="line"/>
      <point x="387" y="264" type="line"/>
      <point x="546" y="264" type="line"/>
      <point x="563" y="345" type="line"/>
      <point x="436" y="345" type="line"/>
      <point x="700" y="700" type="line"/>
      <point x="524" y="700" type="line"/>
      <point x="342" y="448" type="line"/>
      <point x="268" y="700" type="line"/>
      <point x="89" y="700" type="line"/>
      <point x="202" y="345" type="line"/>
      <point x="73" y="345" type="line"/>
      <point x="56" y="264" type="line"/>
      <point x="215" y="264" type="line"/>
      <point x="204" y="211" type="line"/>
      <point x="45" y="211" type="line"/>
      <point x="28" y="130" type="line"/>
      <point x="187" y="130" type="line"/>
    </contour>
  </outline>
</glyph>
<glyph name="section" format="2">
  <advance width="600"/>
  <unicode hex="00A7"/>
  <outline>
    <contour>
      <point x="255" y="-51" type="curve" smooth="yes"/>
      <point x="368" y="-51"/>
      <point x="451" y="19"/>
      <point x="451" y="114" type="curve" smooth="yes"/>
      <point x="451" y="138"/>
      <point x="446" y="158"/>
      <point x="436" y="176" type="curve"/>
      <point x="511" y="198"/>
      <point x="557" y="254"/>
      <point x="557" y="330" type="curve" smooth="yes"/>
      <point x="557" y="386"/>
      <point x="525" y="424"/>
      <point x="441" y="469" type="curve" smooth="yes"/>
      <point x="349" y="518" type="line" smooth="yes"/>
      <point x="325" y="531"/>
      <point x="315" y="544"/>
      <point x="315" y="562" type="curve" smooth="yes"/>
      <point x="315" y="588"/>
      <point x="339" y="608"/>
      <point x="370" y="608" type="curve" smooth="yes"/>
      <point x="411" y="608"/>
      <point x="461" y="584"/>
      <point x="509" y="542" type="curve"/>
      <point x="587" y="629" type="line"/>
      <point x="526" y="682"/>
      <point x="451" y="711"/>
      <point x="372" y="711" type="curve" smooth="yes"/>
      <point x="260" y="711"/>
      <point x="178" y="641"/>
      <point x="178" y="546" type="curve" smooth="yes"/>
      <point x="178" y="523"/>
      <point x="183" y="502"/>
      <point x="192" y="484" type="curve"/>
      <point x="118" y="462"/>
      <point x="72" y="406"/>
      <point x="72" y="331" type="curve" smooth="yes"/>
      <point x="72" y="274"/>
      <point x="104" y="235"/>
      <point x="186" y="191" type="curve" smooth="yes"/>
      <point x="278" y="142" type="line" smooth="yes"/>
      <point x="302" y="128"/>
      <point x="312" y="116"/>
      <point x="312" y="98" type="curve" smooth="yes"/>
      <point x="312" y="72"/>
      <point x="288" y="52"/>
      <point x="257" y="52" type="curve" smooth="yes"/>
      <point x="216" y="52"/>
      <point x="167" y="75"/>
      <point x="117" y="118" type="curve"/>
      <point x="40" y="31" type="line"/>
      <point x="101" y="-22"/>
      <point x="176" y="-51"/>
    </contour>
    <contour>
      <point x="362" y="243" type="curve"/>
      <point x="243" y="302" type="line" smooth="yes"/>
      <point x="212" y="319"/>
      <point x="199" y="335"/>
      <point x="199" y="356" type="curve" smooth="yes"/>
      <point x="199" y="390"/>
      <point x="226" y="415"/>
      <point x="265" y="417" type="curve"/>
      <point x="384" y="358" type="line" smooth="yes"/>
      <point x="415" y="341"/>
      <point x="428" y="325"/>
      <point x="428" y="304" type="curve" smooth="yes"/>
      <point x="428" y="271"/>
      <point x="401" y="245"/>
    </contour>
  </outline>
</glyph>
<glyph name="ordfeminine" format="2">
  <advance width="600"/>
  <unicode hex="00AA"/>
  <outline>
    <contour>
      <point x="243" y="295" type="curve" smooth="yes"/>
      <point x="280" y="295"/>
      <point x="316" y="307"/>
      <point x="351" y="329" type="curve"/>
      <point x="345" y="302" type="line"/>
      <point x="469" y="302" type="line"/>
      <point x="520" y="535" type="line" smooth="yes"/>
      <point x="543" y="642"/>
      <point x="479" y="708"/>
      <point x="352" y="708" type="curve" smooth="yes"/>
      <point x="293" y="708"/>
      <point x="229" y="695"/>
      <point x="176" y="674" type="curve"/>
      <point x="206" y="580" type="line"/>
      <point x="250" y="595"/>
      <point x="289" y="602"/>
      <point x="323" y="602" type="curve" smooth="yes"/>
      <point x="381" y="602"/>
      <point x="405" y="578"/>
      <point x="396" y="535" type="curve" smooth="yes"/>
      <point x="394" y="524" type="line"/>
      <point x="359" y="534"/>
      <point x="321" y="538"/>
      <point x="288" y="538" type="curve" smooth="yes"/>
      <point x="177" y="538"/>
      <point x="118" y="486"/>
      <point x="118" y="409" type="curve" smooth="yes"/>
      <point x="118" y="340"/>
      <point x="165" y="295"/>
    </contour>
    <contour>
      <point x="295" y="384" type="curve" smooth="yes"/>
      <point x="258" y="384"/>
      <point x="236" y="395"/>
      <point x="236" y="418" type="curve" smooth="yes"/>
      <point x="236" y="440"/>
      <point x="257" y="457"/>
      <point x="301" y="457" type="curve" smooth="yes"/>
      <point x="323" y="457"/>
      <point x="352" y="454"/>
      <point x="377" y="448" type="curve"/>
      <point x="367" y="403" type="line"/>
      <point x="344" y="391"/>
      <point x="318" y="384"/>
    </contour>
  </outline>
</glyph>
<glyph name="uni00AC" format="2">
  <advance width="600"/>
  <unicode hex="00AC"/>
  <outline>
    <contour>
      <point x="314" y="0" type="line"/>
      <point x="476" y="0" type="line"/>
      <point x="551" y="354" type="line"/>
      <point x="64" y="354" type="line"/>
      <point x="36" y="219" type="line"/>
      <point x="361" y="219" type="line"/>
    </contour>
  </outline>
</glyph>
<glyph name="macron" format="2">
  <advance width="600"/>
  <unicode hex="00AF"/>
  <outline>
    <contour>
      <point x="216" y="626" type="line"/>
      <point x="538" y="626" type="line"/>
      <point x="560" y="726" type="line"/>
      <point x="238" y="726" type="line"/>
    </contour>
  </outline>
</glyph>
<glyph name="plusminus" format="2">
  <advance width="600"/>
  <unicode hex="00B1"/>
  <outline>
    <contour>
      <point x="20" y="-1" type="line"/>
      <point x="470" y="-1" type="line"/>
      <point x="496" y="123" type="line"/>
      <point x="46" y="123" type="line"/>
    </contour>
    <contour>
      <point x="230" y="209" type="line"/>
      <point x="349" y="209" type="line"/>
      <point x="381" y="358" type="line"/>
      <point x="546" y="358" type="line"/>
      <point x="572" y="481" type="line"/>
      <point x="407" y="481" type="line"/>
      <point x="439" y="629" type="line"/>
      <point x="320" y="629" type="line"/>
      <point x="288" y="481" type="line"/>
      <point x="122" y="481" type="line"/>
      <point x="96" y="358" type="line"/>
      <point x="262" y="358" type="line"/>
    </contour>
  </outline>
</glyph>
<glyph name="paragraph" format="2">
  <advance width="600"/>
  <unicode hex="00B6"/>
  <outline>
    <contour>
      <point x="204" y="0" type="line"/>
      <point x="316" y="0" type="line"/>
      <point x="366" y="236" type="line"/>
      <point x="438" y="236" type="line"/>
      <point x="388" y="0" type="line"/>
      <point x="509" y="0" type="line"/>
      <point x="658" y="700" type="line"/>
      <point x="323" y="700" type="line" smooth="yes"/>
      <point x="179" y="700"/>
      <point x="74" y="592"/>
      <point x="74" y="444" type="curve" smooth="yes"/>
      <point x="74" y="327"/>
      <point x="144" y="237"/>
      <point x="250" y="237" type="curve" smooth="yes"/>
      <point x="254" y="237" type="line"/>
    </contour>
    <contour>
      <point x="465" y="363" type="line"/>
      <point x="393" y="363" type="line"/>
      <point x="437" y="570" type="line"/>
      <point x="509" y="570" type="line"/>
    </contour>
    <contour>
      <point x="280" y="363" type="line" smooth="yes"/>
      <point x="229" y="363"/>
      <point x="196" y="399"/>
      <point x="196" y="456" type="curve" smooth="yes"/>
      <point x="196" y="521"/>
      <point x="241" y="570"/>
      <point x="301" y="570" type="curve" smooth="yes"/>
      <point x="325" y="570" type="line"/>
      <point x="281" y="363" type="line"/>
    </contour>
  </outline>
</glyph>
<glyph name="periodcentered" format="2">
  <advance width="600"/>
  <unicode hex="00B7"/>
  <outline>
    <contour>
      <point x="301" y="194" type="curve" smooth="yes"/>
      <point x="363" y="194"/>
      <point x="415" y="248"/>
      <point x="415" y="308" type="curve" smooth="yes"/>
      <point x="415" y="364"/>
      <point x="373" y="407"/>
      <point x="320" y="407" type="curve" smooth="yes"/>
      <point x="255" y="407"/>
      <point x="203" y="355"/>
      <point x="203" y="293" type="curve" smooth="yes"/>
      <point x="203" y="237"/>
      <point x="246" y="194"/>
    </contour>
  </outline>
</glyph>
<glyph name="ordmasculine" format="2">
  <advance width="600"/>
  <unicode hex="00BA"/>
  <outline>
    <contour>
      <point x="338" y="294" type="curve" smooth="yes"/>
      <point x="465" y="294"/>
      <point x="567" y="394"/>
      <point x="567" y="515" type="curve" smooth="yes"/>
      <point x="567" y="626"/>
      <point x="481" y="708"/>
      <point x="365" y="708" type="curve" smooth="yes"/>
      <point x="238" y="708"/>
      <point x="136" y="608"/>
      <point x="136" y="487" type="curve" smooth="yes"/>
      <point x="136" y="376"/>
      <point x="222" y="294"/>
    </contour>
    <contour>
      <point x="345" y="404" type="curve" smooth="yes"/>
      <point x="293" y="404"/>
      <point x="258" y="441"/>
      <point x="258" y="492" type="curve" smooth="yes"/>
      <point x="258" y="550"/>
      <point x="302" y="598"/>
      <point x="358" y="598" type="curve" smooth="yes"/>
      <point x="410" y="598"/>
      <point x="445" y="561"/>
      <point x="445" y="510" type="curve" smooth="yes"/>
      <point x="445" y="452"/>
      <point x="401" y="404"/>
    </contour>
  </outline>
</glyph>
<glyph name="AE" format="2">
  <advance width="600"/>
  <unicode hex="00C6"/>
  <outline>
    <contour>
      <point x="-66" y="0" type="line"/>
      <point x="80" y="0" type="line"/>
      <point x="132" y="123" type="line"/>
      <point x="225" y="123" type="line"/>
      <point x="199" y="0" type="line"/>
      <point x="522" y="0" type="line"/>
      <point x="552" y="143" type="line"/>
      <point x="381" y="143" type="line"/>
      <point x="411" y="284" type="line"/>
      <point x="513" y="284" type="line"/>
      <point x="543" y="423" type="line"/>
      <point x="440" y="423" type="line"/>
      <point x="469" y="557" type="line"/>
      <point x="636" y="557" type="line"/>
      <point x="666" y="700" type="line"/>
      <point x="246" y="700" type="line"/>
    </contour>
    <contour>
      <point x="185" y="248" type="line"/>
      <point x="317" y="559" type="line"/>
      <point x="251" y="248" type="line"/>
    </contour>
  </outline>
</glyph>
<glyph name="Ccedilla" format="2">
  <advance width="600"/>
  <unicode hex="00C7"/>
  <outline>
    <contour>
      <point x="235" y="-253" type="curve"/>
      <point x="312" y="-253"/>
      <point x="373" y="-201"/>
      <point x="373" y="-136" type="curve"/>
      <point x="373" y="-94"/>
      <point x="342" y="-66"/>
      <point x="288" y="-59" type="curve"/>
      <point x="311" y="-7" type="line"/>
      <point x="423" y="7"/>
      <point x="515" y="93"/>
      <point x="563" y="229" type="curve"/>
      <point x="413" y="275" type="line"/>
      <point x="385" y="189"/>
      <point x="343" y="143"/>
      <point x="291" y="143" type="curve" smooth="yes"/>
      <point x="238" y="143"/>
      <point x="208" y="193"/>
      <point x="208" y="280" type="curve" smooth="yes"/>
      <point x="208" y="433"/>
      <point x="272" y="557"/>
      <point x="351" y="557" type="curve" smooth="yes"/>
      <point x="399" y="557"/>
      <point x="428" y="513"/>
      <point x="433" y="432" type="curve"/>
      <point x="601" y="458" type="line"/>
      <point x="587" y="614"/>
      <point x="496" y="709"/>
      <point x="360" y="709" type="curve" smooth="yes"/>
      <point x="178" y="709"/>
      <point x="38" y="516"/>
      <point x="38" y="266" type="curve" smooth="yes"/>
      <point x="38" y="116"/>
      <point x="115" y="12"/>
      <point x="238" y="-6" type="curve"/>
      <point x="194" y="-109" type="line"/>
      <point x="235" y="-109" type="line" smooth="yes"/>
      <point x="266" y="-109"/>
      <point x="286" y="-123"/>
      <point x="286" y="-144" type="curve"/>
      <point x="286" y="-167"/>
      <point x="265" y="-182"/>
      <point x="233" y="-182" type="curve"/>
      <point x="203" y="-182"/>
      <point x="175" y="-170"/>
      <point x="156" y="-150" type="curve"/>
      <point x="101" y="-205" type="line"/>
      <point x="130" y="-237"/>
      <point x="174" y="-253"/>
    </contour>
  </outline>
</glyph>
<glyph name="ae" format="2">
  <advance width="600"/>
  <unicode hex="00E6"/>
  <outline>
    <contour>
      <point x="358" y="306" type="line"/>
      <point x="371" y="359"/>
      <point x="393" y="401"/>
      <point x="427" y="401" type="curve" smooth="yes"/>
      <point x="456" y="401"/>
      <point x="472" y="367"/>
      <point x="464" y="306" type="curve"/>
    </contour>
    <contour>
      <point x="171" y="96" type="curve" smooth="yes"/>
      <point x="147" y="96"/>
      <point x="127" y="113"/>
      <point x="127" y="142" type="curve" smooth="yes"/>
      <point x="127" y="178"/>
      <point x="150" y="203"/>
      <point x="184" y="203" type="curve" smooth="yes"/>
      <point x="195" y="203"/>
      <point x="203" y="202"/>
      <point x="210" y="199" type="curve"/>
      <point x="210" y="196"/>
      <point x="210" y="194"/>
      <point x="210" y="191" type="curve" smooth="yes"/>
      <point x="211" y="167"/>
      <point x="215" y="142"/>
      <point x="221" y="120" type="curve"/>
      <point x="205" y="104"/>
      <point x="189" y="96"/>
    </contour>
    <contour>
      <point x="121" y="-8" type="curve" smooth="yes"/>
      <point x="171" y="-8"/>
      <point x="220" y="13"/>
      <point x="259" y="49" type="curve"/>
      <point x="291" y="12"/>
      <point x="337" y="-9"/>
      <point x="393" y="-9" type="curve" smooth="yes"/>
      <point x="449" y="-9"/>
      <point x="503" y="12"/>
      <point x="549" y="49" type="curve"/>
      <point x="482" y="147" type="line"/>
      <point x="457" y="128"/>
      <point x="433" y="116"/>
      <point x="409" y="116" type="curve" smooth="yes"/>
      <point x="371" y="116"/>
      <point x="345" y="144"/>
      <point x="345" y="196" type="curve" smooth="yes"/>
      <point x="345" y="203"/>
      <point x="345" y="210"/>
      <point x="345" y="217" type="curve"/>
      <point x="577" y="217" type="line"/>
      <point x="589" y="279"/>
      <point x="592" y="305"/>
      <point x="592" y="329" type="curve" smooth="yes"/>
      <point x="592" y="447"/>
      <point x="530" y="523"/>
      <point x="437" y="523" type="curve" smooth="yes"/>
      <point x="392" y="523"/>
      <point x="354" y="507"/>
      <point x="323" y="481" type="curve"/>
      <point x="296" y="508"/>
      <point x="255" y="522"/>
      <point x="204" y="522" type="curve" smooth="yes"/>
      <point x="149" y="522"/>
      <point x="96" y="503"/>
      <point x="51" y="475" type="curve"/>
      <point x="97" y="367" type="line"/>
      <point x="127" y="383"/>
      <point x="151" y="393"/>
      <point x="177" y="393" type="curve" smooth="yes"/>
      <point x="215" y="393"/>
      <point x="237" y="368"/>
      <point x="226" y="317" type="curve" smooth="yes"/>
      <point x="218" y="281" type="line"/>
      <point x="197" y="288"/>
      <point x="173" y="293"/>
      <point x="149" y="293" type="curve" smooth="yes"/>
      <point x="52" y="293"/>
      <point x="-14" y="225"/>
      <point x="-14" y="133" type="curve" smooth="yes"/>
      <point x="-14" y="46"/>
      <point x="43" y="-8"/>
    </contour>
  </outline>
</glyph>
<glyph name="divide" format="2">
  <advance width="600"/>
  <unicode hex="00F7"/>
  <outline>
    <contour>
      <point x="83" y="297" type="line"/>
      <point x="533" y="297" type="line"/>
      <point x="559" y="421" type="line"/>
      <point x="109" y="421" type="line"/>
    </contour>
    <contour>
      <point x="266" y="39" type="curve" smooth="yes"/>
      <point x="321" y="39"/>
      <point x="366" y="86"/>
      <point x="366" y="139" type="curve" smooth="yes"/>
      <point x="366" y="189"/>
      <point x="330" y="226"/>
      <point x="283" y="226" type="curve" smooth="yes"/>
      <point x="225" y="226"/>
      <point x="180" y="181"/>
      <point x="180" y="126" type="curve" smooth="yes"/>
      <point x="180" y="76"/>
      <point x="217" y="39"/>
    </contour>
    <contour>
      <point x="364" y="499" type="curve" smooth="yes"/>
      <point x="419" y="499"/>
      <point x="464" y="546"/>
      <point x="464" y="599" type="curve" smooth="yes"/>
      <point x="464" y="649"/>
      <point x="428" y="686"/>
      <point x="381" y="686" type="curve" smooth="yes"/>
      <point x="323" y="686"/>
      <point x="278" y="641"/>
      <point x="278" y="586" type="curve" smooth="yes"/>
      <point x="278" y="536"/>
      <point x="315" y="499"/>
    </contour>
  </outline>
</glyph>
<glyph name="thorn" format="2">
  <advance width="600"/>
  <unicode hex="00FE"/>
  <outline>
    <contour>
      <point x="-41" y="-209" type="line"/>
      <point x="118" y="-209" type="line"/>
      <point x="176" y="63" type="line"/>
      <point x="205" y="22"/>
      <point x="258" y="-3"/>
      <point x="314" y="-3" type="curve" smooth="yes"/>
      <point x="455" y="-3"/>
      <point x="568" y="132"/>
      <point x="568" y="290" type="curve" smooth="yes"/>
      <point x="568" y="417"/>
      <point x="487" y="519"/>
      <point x="384" y="519" type="curve" smooth="yes"/>
      <point x="341" y="519"/>
      <point x="300" y="507"/>
      <point x="263" y="470" type="curve"/>
      <point x="320" y="737" type="line"/>
      <point x="156" y="712" type="line"/>
    </contour>
    <contour>
      <point x="284" y="127" type="curve" smooth="yes"/>
      <point x="250" y="127"/>
      <point x="220" y="141"/>
      <point x="198" y="165" type="curve"/>
      <point x="239" y="359" type="line"/>
      <point x="263" y="380"/>
      <point x="292" y="392"/>
      <point x="320" y="392" type="curve" smooth="yes"/>
      <point x="380" y="392"/>
      <point x="413" y="343"/>
      <point x="413" y="280" type="curve" smooth="yes"/>
      <point x="413" y="194"/>
      <point x="358" y="127"/>
    </contour>
  </outline>
</glyph>
<glyph name="Aogonek" format="2">
  <advance width="600"/>
  <unicode hex="0104"/>
  <outline>
    <contour>
      <point x="-55" y="0" type="line"/>
      <point x="111" y="0" type="line"/>
      <point x="176" y="137" type="line"/>
      <point x="369" y="137" type="line"/>
      <point x="375" y="0" type="line"/>
      <point x="464" y="0" type="line"/>
      <point x="386" y="-47"/>
      <point x="348" y="-97"/>
      <point x="348" y="-153" type="curve" smooth="yes"/>
      <point x="348" y="-201"/>
      <point x="382" y="-231"/>
      <point x="436" y="-231" type="curve" smooth="yes"/>
      <point x="471" y="-231"/>
      <point x="507" y="-222"/>
      <point x="532" y="-208" type="curve"/>
      <point x="527" y="-138" type="line"/>
      <point x="516" y="-145"/>
      <point x="498" y="-149"/>
      <point x="480" y="-149" type="curve" smooth="yes"/>
      <point x="455" y="-149"/>
      <point x="440" y="-136"/>
      <point x="440" y="-113" type="curve" smooth="yes"/>
      <point x="440" y="-76"/>
      <point x="475" y="-38"/>
      <point x="545" y="0" type="curve"/>
      <point x="493" y="700" type="line"/>
      <point x="295" y="700" type="line"/>
    </contour>
    <contour>
      <point x="239" y="270" type="line"/>
      <point x="354" y="511" type="line"/>
      <point x="364" y="270" type="line"/>
    </contour>
  </outline>
</glyph>
<glyph name="aogonek" format="2">
  <advance width="600"/>
  <unicode hex="0105"/>
  <outline>
    <contour>
      <point x="362" y="-231" type="curve" smooth="yes"/>
      <point x="397" y="-231"/>
      <point x="433" y="-222"/>
      <point x="458" y="-208" type="curve"/>
      <point x="453" y="-138" type="line"/>
      <point x="442" y="-145"/>
      <point x="424" y="-149"/>
      <point x="406" y="-149" type="curve" smooth="yes"/>
      <point x="381" y="-149"/>
      <point x="366" y="-136"/>
      <point x="366" y="-113" type="curve" smooth="yes"/>
      <point x="366" y="-76"/>
      <point x="401" y="-38"/>
      <point x="471" y="0" type="curve"/>
      <point x="537" y="303" type="line" smooth="yes"/>
      <point x="567" y="440"/>
      <point x="485" y="523"/>
      <point x="321" y="523" type="curve" smooth="yes"/>
      <point x="260" y="523"/>
      <point x="192" y="509"/>
      <point x="111" y="480" type="curve"/>
      <point x="147" y="366" type="line"/>
      <point x="203" y="384"/>
      <point x="243" y="392"/>
      <point x="278" y="392" type="curve" smooth="yes"/>
      <point x="359" y="392"/>
      <point x="392" y="363"/>
      <point x="379" y="302" type="curve" smooth="yes"/>
      <point x="373" y="273" type="line"/>
      <point x="333" y="290"/>
      <point x="287" y="301"/>
      <point x="243" y="301" type="curve" smooth="yes"/>
      <point x="113" y="301"/>
      <point x="34" y="238"/>
      <point x="34" y="135" type="curve" smooth="yes"/>
      <point x="34" y="49"/>
      <point x="95" y="-4"/>
      <point x="193" y="-4" type="curve" smooth="yes"/>
      <point x="238" y="-4"/>
      <point x="274" y="9"/>
      <point x="324" y="44" type="curve"/>
      <point x="314" y="0" type="line"/>
      <point x="390" y="0" type="line"/>
      <point x="312" y="-47"/>
      <point x="274" y="-97"/>
      <point x="274" y="-153" type="curve" smooth="yes"/>
      <point x="274" y="-201"/>
      <point x="308" y="-231"/>
    </contour>
    <contour>
      <point x="257" y="100" type="curve" smooth="yes"/>
      <point x="207" y="100"/>
      <point x="179" y="120"/>
      <point x="179" y="150" type="curve" smooth="yes"/>
      <point x="179" y="187"/>
      <point x="209" y="206"/>
      <point x="264" y="206" type="curve" smooth="yes"/>
      <point x="298" y="206"/>
      <point x="330" y="200"/>
      <point x="355" y="192" type="curve"/>
      <point x="340" y="122" type="line"/>
      <point x="314" y="107"/>
      <point x="287" y="100"/>
    </contour>
  </outline>
</glyph>
<glyph name="dcaron" format="2">
  <advance width="600"/>
  <unicode hex="010F"/>
  <outline>
    <contour>
      <point x="167" y="-3" type="curve" smooth="yes"/>
      <point x="207" y="-3"/>
      <point x="245" y="14"/>
      <point x="281" y="50" type="curve"/>
      <point x="270" y="0" type="line"/>
      <point x="417" y="0" type="line"/>
      <point x="573" y="737" type="line"/>
      <point x="420" y="712" type="line"/>
      <point x="370" y="478" type="line"/>
      <point x="341" y="504"/>
      <point x="301" y="519"/>
      <point x="253" y="519" type="curve" smooth="yes"/>
      <point x="129" y="519"/>
      <point x="20" y="382"/>
      <point x="20" y="210" type="curve" smooth="yes"/>
      <point x="20" y="76"/>
      <point x="91" y="-3"/>
    </contour>
    <contour>
      <point x="235" y="126" type="curve" smooth="yes"/>
      <point x="194" y="126"/>
      <point x="165" y="156"/>
      <point x="165" y="220" type="curve" smooth="yes"/>
      <point x="165" y="318"/>
      <point x="218" y="391"/>
      <point x="280" y="391" type="curve" smooth="yes"/>
      <point x="304" y="391"/>
      <point x="327" y="382"/>
      <point x="346" y="366" type="curve"/>
      <point x="300" y="146" type="line"/>
      <point x="279" y="133"/>
      <point x="257" y="126"/>
    </contour>
    <contour>
      <point x="566" y="498" type="line"/>
      <point x="655" y="498" type="line"/>
      <point x="745" y="737" type="line"/>
      <point x="620" y="712" type="line"/>
    </contour>
  </outline>
</glyph>
<glyph name="eogonek" format="2">
  <advance width="600"/>
  <unicode hex="0119"/>
  <outline>
    <contour>
      <point x="270" y="-231" type="curve" smooth="yes"/>
      <point x="305" y="-231"/>
      <point x="341" y="-222"/>
      <point x="366" y="-208" type="curve"/>
      <point x="361" y="-138" type="line"/>
      <point x="350" y="-145"/>
      <point x="332" y="-149"/>
      <point x="314" y="-149" type="curve" smooth="yes"/>
      <point x="289" y="-149"/>
      <point x="274" y="-136"/>
      <point x="274" y="-113" type="curve" smooth="yes"/>
      <point x="274" y="-76"/>
      <point x="309" y="-38"/>
      <point x="379" y="0" type="curve"/>
      <point x="429" y="14"/>
      <point x="473" y="39"/>
      <point x="509" y="77" type="curve"/>
      <point x="431" y="168" type="line"/>
      <point x="398" y="136"/>
      <point x="357" y="117"/>
      <point x="313" y="117" type="curve" smooth="yes"/>
      <point x="248" y="117"/>
      <point x="198" y="157"/>
      <point x="189" y="217" type="curve"/>
      <point x="557" y="217" type="line"/>
      <point x="561" y="238"/>
      <point x="563" y="262"/>
      <point x="563" y="293" type="curve" smooth="yes"/>
      <point x="563" y="430"/>
      <point x="467" y="524"/>
      <point x="324" y="524" type="curve" smooth="yes"/>
      <point x="166" y="524"/>
      <point x="35" y="391"/>
      <point x="35" y="233" type="curve" smooth="yes"/>
      <point x="35" y="94"/>
      <point x="137" y="-6"/>
      <point x="281" y="-11" type="curve"/>
      <point x="215" y="-54"/>
      <point x="182" y="-100"/>
      <point x="182" y="-153" type="curve" smooth="yes"/>
      <point x="182" y="-201"/>
      <point x="216" y="-231"/>
    </contour>
    <contour>
      <point x="200" y="308" type="line"/>
      <point x="220" y="362"/>
      <point x="265" y="397"/>
      <point x="319" y="397" type="curve" smooth="yes"/>
      <point x="376" y="397"/>
      <point x="414" y="363"/>
      <point x="423" y="308" type="curve"/>
    </contour>
  </outline>
</glyph>
<glyph name="hcircumflex" format="2">
  <advance width="600"/>
  <unicode hex="0125"/>
  <outline>
    <contour>
      <point x="12" y="0" type="line"/>
      <point x="171" y="0" type="line"/>
      <point x="248" y="358" type="line"/>
      <point x="275" y="385"/>
      <point x="303" y="397"/>
      <point x="333" y="397" type="curve" smooth="yes"/>
      <point x="387" y="397"/>
      <point x="415" y="356"/>
      <point x="402" y="297" type="curve" smooth="yes"/>
      <point x="338" y="0" type="line"/>
      <point x="497" y="0" type="line"/>
      <point x="569" y="337" type="line" smooth="yes"/>
      <point x="593" y="447"/>
      <point x="538" y="522"/>
      <point x="434" y="522" type="curve" smooth="yes"/>
      <point x="371" y="522"/>
      <point x="314" y="492"/>
      <point x="265" y="437" type="curve"/>
      <point x="328" y="727" type="line"/>
      <point x="168" y="727" type="line"/>
    </contour>
    <component base="circumflex" xOffset="-113" yOffset="184"/>
  </outline>
</glyph>
<glyph name="Hbar" format="2">
  <advance width="600"/>
  <unicode hex="0126"/>
  <outline>
    <contour>
      <point x="-8" y="0" type="line"/>
      <point x="164" y="0" type="line"/>
      <point x="223" y="277" type="line"/>
      <point x="385" y="277" type="line"/>
      <point x="326" y="0" type="line"/>
      <point x="498" y="0" type="line"/>
      <point x="603" y="493" type="line"/>
      <point x="650" y="493" type="line"/>
      <point x="675" y="613" type="line"/>
      <point x="628" y="613" type="line"/>
      <point x="647" y="700" type="line"/>
      <point x="475" y="700" type="line"/>
      <point x="456" y="613" type="line"/>
      <point x="294" y="613" type="line"/>
      <point x="313" y="700" type="line"/>
      <point x="141" y="700" type="line"/>
      <point x="122" y="613" type="line"/>
      <point x="75" y="613" type="line"/>
      <point x="50" y="493" type="line"/>
      <point x="97" y="493" type="line"/>
    </contour>
    <contour>
      <point x="253" y="417" type="line"/>
      <point x="269" y="493" type="line"/>
      <point x="431" y="493" type="line"/>
      <point x="415" y="417" type="line"/>
    </contour>
  </outline>
</glyph>
<glyph name="hbar" format="2">
  <advance width="600"/>
  <unicode hex="0127"/>
  <outline>
    <contour>
      <point x="12" y="0" type="line"/>
      <point x="171" y="0" type="line"/>
      <point x="248" y="358" type="line"/>
      <point x="275" y="385"/>
      <point x="303" y="397"/>
      <point x="333" y="397" type="curve" smooth="yes"/>
      <point x="387" y="397"/>
      <point x="415" y="356"/>
      <point x="402" y="297" type="curve" smooth="yes"/>
      <point x="338" y="0" type="line"/>
      <point x="497" y="0" type="line"/>
      <point x="569" y="337" type="line" smooth="yes"/>
      <point x="593" y="447"/>
      <point x="538" y="522"/>
      <point x="434" y="522" type="curve" smooth="yes"/>
      <point x="371" y="522"/>
      <point x="314" y="492"/>
      <point x="265" y="436" type="curve"/>
      <point x="292" y="560" type="line"/>
      <point x="403" y="560" type="line"/>
      <point x="422" y="648" type="line"/>
      <point x="311" y="648" type="line"/>
      <point x="330" y="737" type="line"/>
      <point x="165" y="712" type="line"/>
      <point x="151" y="648" type="line"/>
      <point x="78" y="648" type="line"/>
      <point x="59" y="560" type="line"/>
      <point x="132" y="560" type="line"/>
    </contour>
  </outline>
</glyph>
<glyph name="Iogonek" format="2">
  <advance width="600"/>
  <unicode hex="012E"/>
  <outline>
    <contour>
      <point x="-11" y="0" type="line"/>
      <point x="420" y="0" type="line"/>
      <point x="342" y="-47"/>
      <point x="304" y="-97"/>
      <point x="304" y="-153" type="curve" smooth="yes"/>
      <point x="304" y="-201"/>
      <point x="338" y="-231"/>
      <point x="392" y="-231" type="curve" smooth="yes"/>
      <point x="427" y="-231"/>
      <point x="463" y="-222"/>
      <point x="488" y="-208" type="curve"/>
      <point x="483" y="-138" type="line"/>
      <point x="472" y="-145"/>
      <point x="454" y="-149"/>
      <point x="436" y="-149" type="curve" smooth="yes"/>
      <point x="411" y="-149"/>
      <point x="396" y="-136"/>
      <point x="396" y="-113" type="curve" smooth="yes"/>
      <point x="396" y="-76"/>
      <point x="431" y="-38"/>
      <point x="501" y="0" type="curve"/>
      <point x="531" y="142" type="line"/>
      <point x="361" y="142" type="line"/>
      <point x="450" y="558" type="line"/>
      <point x="620" y="558" type="line"/>
      <point x="650" y="700" type="line"/>
      <point x="138" y="700" type="line"/>
      <point x="108" y="558" type="line"/>
      <point x="278" y="558" type="line"/>
      <point x="189" y="142" type="line"/>
      <point x="19" y="142" type="line"/>
    </contour>
  </outline>
</glyph>
<glyph name="IJ" format="2">
  <advance width="600"/>
  <unicode hex="0132"/>
  <outline>
    <contour>
      <point x="341" y="-10" type="curve"/>
      <point x="436" y="-10"/>
      <point x="509" y="49"/>
      <point x="535" y="172" type="curve" smooth="yes"/>
      <point x="647" y="700" type="line"/>
      <point x="475" y="700" type="line"/>
      <point x="368" y="196" type="line" smooth="yes"/>
      <point x="360" y="160"/>
      <point x="343" y="144"/>
      <point x="315" y="144" type="curve"/>
      <point x="295" y="144"/>
      <point x="270" y="150"/>
      <point x="249" y="161" type="curve"/>
      <point x="218" y="18" type="line"/>
      <point x="250" y="1"/>
      <point x="295" y="-10"/>
    </contour>
    <contour>
      <point x="-7" y="0" type="line"/>
      <point x="165" y="0" type="line"/>
      <point x="313" y="700" type="line"/>
      <point x="141" y="700" type="line"/>
    </contour>
  </outline>
</glyph>
<glyph name="kgreenlandic" format="2">
  <advance width="600"/>
  <unicode hex="0138"/>
  <outline>
    <contour>
      <point x="5" y="0" type="line"/>
      <point x="164" y="0" type="line"/>
      <point x="210" y="218" type="line"/>
      <point x="342" y="0" type="line"/>
      <point x="530" y="0" type="line"/>
      <point x="360" y="258" type="line"/>
      <point x="628" y="516" type="line"/>
      <point x="437" y="516" type="line"/>
      <point x="227" y="297" type="line"/>
      <point x="273" y="516" type="line"/>
      <point x="115" y="516" type="line"/>
    </contour>
  </outline>
</glyph>
<glyph name="Lslash" format="2">
  <advance width="600"/>
  <unicode hex="0141"/>
  <outline>
    <contour>
      <point x="22" y="0" type="line"/>
      <point x="511" y="0" type="line"/>
      <point x="543" y="144" type="line"/>
      <point x="221" y="144" type="line"/>
      <point x="253" y="295" type="line"/>
      <point x="452" y="398" type="line"/>
      <point x="482" y="540" type="line"/>
      <point x="283" y="437" type="line"/>
      <point x="339" y="700" type="line"/>
      <point x="171" y="700" type="line"/>
      <point x="95" y="341" type="line"/>
      <point x="8" y="296" type="line"/>
      <point x="-22" y="154" type="line"/>
      <point x="64" y="199" type="line"/>
    </contour>
  </outline>
</glyph>
<glyph name="lslash" format="2">
  <advance width="600"/>
  <unicode hex="0142"/>
  <outline>
    <contour>
      <point x="358" y="-7" type="curve" smooth="yes"/>
      <point x="402" y="-7"/>
      <point x="456" y="2"/>
      <point x="482" y="14" type="curve"/>
      <point x="510" y="145" type="line"/>
      <point x="475" y="133"/>
      <point x="445" y="129"/>
      <point x="415" y="129" type="curve" smooth="yes"/>
      <point x="362" y="129"/>
      <point x="337" y="152"/>
      <point x="351" y="218" type="curve" smooth="yes"/>
      <point x="372" y="318" type="line"/>
      <point x="590" y="406" type="line"/>
      <point x="619" y="543" type="line"/>
      <point x="401" y="454" type="line"/>
      <point x="459" y="727" type="line"/>
      <point x="119" y="727" type="line"/>
      <point x="92" y="602" type="line"/>
      <point x="270" y="602" type="line"/>
      <point x="223" y="384" type="line"/>
      <point x="55" y="316" type="line"/>
      <point x="26" y="180" type="line"/>
      <point x="194" y="248" type="line"/>
      <point x="188" y="220" type="line" smooth="yes"/>
      <point x="156" y="72"/>
      <point x="222" y="-7"/>
    </contour>
  </outline>
</glyph>
<glyph name="OE" format="2">
  <advance width="600"/>
  <unicode hex="0152"/>
  <outline>
    <contour>
      <point x="275" y="0" type="curve" smooth="yes"/>
      <point x="537" y="0" type="line"/>
      <point x="567" y="144" type="line"/>
      <point x="398" y="144" type="line"/>
      <point x="428" y="283" type="line"/>
      <point x="528" y="283" type="line"/>
      <point x="558" y="423" type="line"/>
      <point x="458" y="423" type="line"/>
      <point x="486" y="556" type="line"/>
      <point x="651" y="556" type="line"/>
      <point x="681" y="700" type="line"/>
      <point x="379" y="700" type="line"/>
      <point x="178" y="700"/>
      <point x="27" y="516"/>
      <point x="27" y="270" type="curve" smooth="yes"/>
      <point x="27" y="96"/>
      <point x="125" y="0"/>
    </contour>
    <contour>
      <point x="246" y="153" type="line"/>
      <point x="207" y="170"/>
      <point x="186" y="211"/>
      <point x="186" y="282" type="curve" smooth="yes"/>
      <point x="186" y="405"/>
      <point x="261" y="543"/>
      <point x="332" y="555" type="curve"/>
    </contour>
  </outline>
</glyph>
<glyph name="scedilla" format="2">
  <advance width="600"/>
  <unicode hex="015F"/>
  <outline>
    <contour>
      <point x="238" y="-253" type="curve"/>
      <point x="315" y="-253"/>
      <point x="376" y="-201"/>
      <point x="376" y="-136" type="curve"/>
      <point x="376" y="-94"/>
      <point x="345" y="-66"/>
      <point x="291" y="-59" type="curve"/>
      <point x="313" y="-10" type="line"/>
      <point x="428" y="1"/>
      <point x="513" y="71"/>
      <point x="513" y="169" type="curve"/>
      <point x="513" y="354"/>
      <point x="228" y="296"/>
      <point x="228" y="371" type="curve" smooth="yes"/>
      <point x="228" y="395"/>
      <point x="251" y="408"/>
      <point x="296" y="408" type="curve" smooth="yes"/>
      <point x="351" y="408"/>
      <point x="409" y="383"/>
      <point x="465" y="339" type="curve"/>
      <point x="541" y="439" type="line"/>
      <point x="477" y="492"/>
      <point x="392" y="525"/>
      <point x="302" y="525" type="curve" smooth="yes"/>
      <point x="166" y="525"/>
      <point x="88" y="459"/>
      <point x="88" y="356" type="curve" smooth="yes"/>
      <point x="88" y="157"/>
      <point x="365" y="230"/>
      <point x="365" y="151" type="curve"/>
      <point x="365" y="126"/>
      <point x="334" y="108"/>
      <point x="290" y="108" type="curve" smooth="yes"/>
      <point x="231" y="108"/>
      <point x="169" y="130"/>
      <point x="101" y="187" type="curve"/>
      <point x="26" y="81" type="line"/>
      <point x="79" y="34"/>
      <point x="159" y="0"/>
      <point x="240" y="-9" type="curve"/>
      <point x="197" y="-109" type="line"/>
      <point x="238" y="-109" type="line" smooth="yes"/>
      <point x="269" y="-109"/>
      <point x="289" y="-123"/>
      <point x="289" y="-144" type="curve"/>
      <point x="289" y="-167"/>
      <point x="268" y="-182"/>
      <point x="236" y="-182" type="curve"/>
      <point x="206" y="-182"/>
      <point x="178" y="-170"/>
      <point x="159" y="-150" type="curve"/>
      <point x="104" y="-205" type="line"/>
      <point x="134" y="-238"/>
      <point x="178" y="-253"/>
    </contour>
  </outline>
</glyph>
<glyph name="tcedilla" format="2">
  <advance width="600"/>
  <unicode hex="0163"/>
  <outline>
    <contour>
      <point x="264" y="-253" type="curve"/>
      <point x="341" y="-253"/>
      <point x="402" y="-201"/>
      <point x="402" y="-136" type="curve"/>
      <point x="402" y="-94"/>
      <point x="371" y="-66"/>
      <point x="317" y="-59" type="curve"/>
      <point x="340" y="-7" type="line"/>
      <point x="342" y="-7"/>
      <point x="344" y="-7"/>
      <point x="346" y="-7" type="curve" smooth="yes"/>
      <point x="389" y="-7"/>
      <point x="450" y="2"/>
      <point x="482" y="14" type="curve"/>
      <point x="510" y="145" type="line"/>
      <point x="473" y="134"/>
      <point x="436" y="129"/>
      <point x="406" y="129" type="curve" smooth="yes"/>
      <point x="341" y="129"/>
      <point x="313" y="152"/>
      <point x="327" y="217" type="curve" smooth="yes"/>
      <point x="364" y="391" type="line"/>
      <point x="559" y="391" type="line"/>
      <point x="586" y="516" type="line"/>
      <point x="391" y="516" type="line"/>
      <point x="428" y="692" type="line"/>
      <point x="259" y="659" type="line"/>
      <point x="228" y="516" type="line"/>
      <point x="78" y="516" type="line"/>
      <point x="51" y="391" type="line"/>
      <point x="202" y="391" type="line"/>
      <point x="162" y="205" type="line" smooth="yes"/>
      <point x="139" y="97"/>
      <point x="178" y="25"/>
      <point x="271" y="2" type="curve"/>
      <point x="223" y="-109" type="line"/>
      <point x="264" y="-109" type="line" smooth="yes"/>
      <point x="295" y="-109"/>
      <point x="315" y="-123"/>
      <point x="315" y="-144" type="curve"/>
      <point x="315" y="-167"/>
      <point x="294" y="-182"/>
      <point x="262" y="-182" type="curve"/>
      <point x="232" y="-182"/>
      <point x="204" y="-170"/>
      <point x="185" y="-150" type="curve"/>
      <point x="130" y="-205" type="line"/>
      <point x="160" y="-238"/>
      <point x="204" y="-253"/>
    </contour>
  </outline>
</glyph>
<glyph name="tbar" format="2">
  <advance width="600"/>
  <unicode hex="0167"/>
  <outline>
    <contour>
      <point x="35" y="318" type="line"/>
      <point x="13" y="217" type="line"/>
      <point x="165" y="217" type="line"/>
      <point x="162" y="205" type="line" smooth="yes"/>
      <point x="133" y="71"/>
      <point x="201" y="-7"/>
      <point x="346" y="-7" type="curve" smooth="yes"/>
      <point x="389" y="-7"/>
      <point x="450" y="2"/>
      <point x="482" y="14" type="curve"/>
      <point x="510" y="145" type="line"/>
      <point x="473" y="134"/>
      <point x="436" y="129"/>
      <point x="406" y="129" type="curve" smooth="yes"/>
      <point x="343" y="129"/>
      <point x="314" y="151"/>
      <point x="326" y="212" type="curve" smooth="yes"/>
      <point x="327" y="217" type="line"/>
      <point x="524" y="217" type="line"/>
      <point x="546" y="318" type="line"/>
      <point x="348" y="318" type="line"/>
      <point x="364" y="391" type="line"/>
      <point x="559" y="391" type="line"/>
      <point x="586" y="516" type="line"/>
      <point x="391" y="516" type="line"/>
      <point x="428" y="692" type="line"/>
      <point x="259" y="659" type="line"/>
      <point x="228" y="516" type="line"/>
      <point x="78" y="516" type="line"/>
      <point x="51" y="391" type="line"/>
      <point x="202" y="391" type="line"/>
      <point x="186" y="318" type="line"/>
    </contour>
  </outline>
</glyph>
<glyph name="Uogonek" format="2">
  <advance width="600"/>
  <unicode hex="0172"/>
  <outline>
    <contour>
      <point x="246" y="-231" type="curve" smooth="yes"/>
      <point x="281" y="-231"/>
      <point x="317" y="-222"/>
      <point x="342" y="-208" type="curve"/>
      <point x="337" y="-138" type="line"/>
      <point x="326" y="-145"/>
      <point x="308" y="-149"/>
      <point x="290" y="-149" type="curve" smooth="yes"/>
      <point x="265" y="-149"/>
      <point x="250" y="-136"/>
      <point x="250" y="-113" type="curve" smooth="yes"/>
      <point x="250" y="-76"/>
      <point x="285" y="-38"/>
      <point x="355" y="0" type="curve"/>
      <point x="457" y="28"/>
      <point x="526" y="111"/>
      <point x="553" y="235" type="curve" smooth="yes"/>
      <point x="653" y="700" type="line"/>
      <point x="481" y="700" type="line"/>
      <point x="384" y="248" type="line" smooth="yes"/>
      <point x="371" y="185"/>
      <point x="338" y="144"/>
      <point x="286" y="144" type="curve" smooth="yes"/>
      <point x="235" y="144"/>
      <point x="198" y="185"/>
      <point x="213" y="257" type="curve" smooth="yes"/>
      <point x="308" y="700" type="line"/>
      <point x="136" y="700" type="line"/>
      <point x="43" y="266" type="line" smooth="yes"/>
      <point x="6" y="101"/>
      <point x="111" y="-2"/>
      <point x="259" y="-10" type="curve"/>
      <point x="192" y="-53"/>
      <point x="158" y="-100"/>
      <point x="158" y="-153" type="curve" smooth="yes"/>
      <point x="158" y="-201"/>
      <point x="192" y="-231"/>
    </contour>
  </outline>
</glyph>
<glyph name="circumflex" format="2">
  <advance width="600"/>
  <unicode hex="02C6"/>
  <anchor x="356" y="516" name="_top"/>
  <outline>
    <contour>
      <point x="170" y="599" type="line"/>
      <point x="297" y="599" type="line"/>
      <point x="393" y="682" type="line"/>
      <point x="457" y="599" type="line"/>
      <point x="574" y="599" type="line"/>
      <point x="479" y="750" type="line"/>
      <point x="326" y="750" type="line"/>
    </contour>
  </outline>
</glyph>
<glyph name="ogonek" format="2">
  <advance width="600"/>
  <unicode hex="02DB"/>
  <outline>
    <contour>
      <point x="183" y="-231" type="curve" smooth="yes"/>
      <point x="218" y="-231"/>
      <point x="254" y="-222"/>
      <point x="279" y="-208" type="curve"/>
      <point x="274" y="-138" type="line"/>
      <point x="263" y="-145"/>
      <point x="245" y="-149"/>
      <point x="227" y="-149" type="curve" smooth="yes"/>
      <point x="202" y="-149"/>
      <point x="187" y="-136"/>
      <point x="187" y="-113" type="curve" smooth="yes"/>
      <point x="187" y="-76"/>
      <point x="222" y="-38"/>
      <point x="292" y="0" type="curve"/>
      <point x="251" y="22" type="line"/>
      <point x="146" y="-31"/>
      <point x="95" y="-88"/>
      <point x="95" y="-153" type="curve" smooth="yes"/>
      <point x="95" y="-201"/>
      <point x="129" y="-231"/>
    </contour>
  </outline>
</glyph>
<glyph name="tilde" format="2">
  <advance width="600"/>
  <unicode hex="02DC"/>
  <outline>
    <contour>
      <point x="257" y="594" type="line"/>
      <point x="279" y="645"/>
      <point x="293" y="662"/>
      <point x="312" y="662" type="curve" smooth="yes"/>
      <point x="353" y="662"/>
      <point x="397" y="590"/>
      <point x="467" y="590" type="curve" smooth="yes"/>
      <point x="518" y="590"/>
      <point x="561" y="634"/>
      <point x="601" y="725" type="curve"/>
      <point x="518" y="755" type="line"/>
      <point x="493" y="700"/>
      <point x="484" y="688"/>
      <point x="469" y="688" type="curve" smooth="yes"/>
      <point x="432" y="688"/>
      <point x="379" y="760"/>
      <point x="313" y="760" type="curve" smooth="yes"/>
      <point x="260" y="760"/>
      <point x="215" y="717"/>
      <point x="175" y="625" type="curve"/>
    </contour>
  </outline>
</glyph>
<glyph name="hungarumlaut" format="2">
  <advance width="600"/>
  <unicode hex="02DD"/>
  <outline>
    <contour>
      <point x="185" y="603" type="line"/>
      <point x="303" y="603" type="line"/>
      <point x="487" y="746" type="line"/>
      <point x="347" y="746" type="line"/>
    </contour>
    <contour>
      <point x="407" y="603" type="line"/>
      <point x="517" y="603" type="line"/>
      <point x="712" y="746" type="line"/>
      <point x="569" y="746" type="line"/>
    </contour>
  </outline>
</glyph>
<glyph name="endash" format="2">
  <advance width="600"/>
  <unicode hex="2013"/>
  <outline>
    <contour>
      <point x="60" y="219" type="line"/>
      <point x="523" y="219" type="line"/>
      <point x="551" y="354" type="line"/>
      <point x="88" y="354" type="line"/>
    </contour>
  </outline>
</glyph>
<glyph name="quoteleft" format="2">
  <advance width="600"/>
  <unicode hex="2018"/>
  <outline>
    <contour>
      <point x="544" y="750" type="line"/>
      <point x="430" y="750" type="line"/>
      <point x="245" y="446" type="line"/>
      <point x="420" y="446" type="line"/>
    </contour>
  </outline>
</glyph>
<glyph name="dagger" format="2">
  <advance width="600"/>
  <unicode hex="2020"/>
  <outline>
    <contour>
      <point x="184" y="0" type="line"/>
      <point x="307" y="0" type="line"/>
      <point x="394" y="407" type="line"/>
      <point x="521" y="407" type="line"/>
      <point x="544" y="516" type="line"/>
      <point x="417" y="516" type="line"/>
      <point x="456" y="700" type="line"/>
      <point x="333" y="700" type="line"/>
      <point x="294" y="516" type="line"/>
      <point x="166" y="516" type="line"/>
      <point x="143" y="407" type="line"/>
      <point x="271" y="407" type="line"/>
    </contour>
  </outline>
</glyph>
<glyph name="ellipsis" format="2">
  <advance width="600"/>
  <unicode hex="2026"/>
  <outline>
    <contour>
      <point x="50" y="-11" type="curve" smooth="yes"/>
      <point x="103" y="-11"/>
      <point x="143" y="43"/>
      <point x="143" y="96" type="curve" smooth="yes"/>
      <point x="143" y="144"/>
      <point x="111" y="180"/>
      <point x="70" y="180" type="curve" smooth="yes"/>
      <point x="17" y="180"/>
      <point x="-23" y="126"/>
      <point x="-23" y="73" type="curve" smooth="yes"/>
      <point x="-23" y="25"/>
      <point x="9" y="-11"/>
    </contour>
    <contour>
      <point x="254" y="-11" type="curve" smooth="yes"/>
      <point x="307" y="-11"/>
      <point x="347" y="43"/>
      <point x="347" y="96" type="curve" smooth="yes"/>
      <point x="347" y="144"/>
      <point x="315" y="180"/>
      <point x="274" y="180" type="curve" smooth="yes"/>
      <point x="221" y="180"/>
      <point x="181" y="126"/>
      <point x="181" y="73" type="curve" smooth="yes"/>
      <point x="181" y="25"/>
      <point x="213" y="-11"/>
    </contour>
    <contour>
      <point x="456" y="-11" type="curve" smooth="yes"/>
      <point x="509" y="-11"/>
      <point x="549" y="43"/>
      <point x="549" y="96" type="curve" smooth="yes"/>
      <point x="549" y="144"/>
      <point x="517" y="180"/>
      <point x="476" y="180" type="curve" smooth="yes"/>
      <point x="423" y="180"/>
      <point x="383" y="126"/>
      <point x="383" y="73" type="curve" smooth="yes"/>
      <point x="383" y="25"/>
      <point x="415" y="-11"/>
    </contour>
  </outline>
</glyph>
<glyph name="guilsinglleft" format="2">
  <advance width="600"/>
  <unicode hex="2039"/>
  <outline>
    <contour>
      <point x="279" y="0" type="line"/>
      <point x="438" y="0" type="line"/>
      <point x="264" y="260" type="line"/>
      <point x="545" y="516" type="line"/>
      <point x="389" y="516" type="line"/>
      <point x="100" y="259" type="line"/>
    </contour>
  </outline>
</glyph>
<glyph name="uni2082" format="2">
  <advance width="600"/>
  <unicode hex="2082"/>
  <outline>
    <contour>
      <point x="118" y="0" type="line"/>
      <point x="374" y="0" type="line"/>
      <point x="391" y="78" type="line"/>
      <point x="256" y="78" type="line"/>
      <point x="359" y="162" type="line" smooth="yes"/>
      <point x="402" y="196"/>
      <point x="422" y="229"/>
      <point x="422" y="265" type="curve" smooth="yes"/>
      <point x="422" y="319"/>
      <point x="373" y="356"/>
      <point x="302" y="356" type="curve" smooth="yes"/>
      <point x="258" y="356"/>
      <point x="210" y="337"/>
      <point x="167" y="303" type="curve"/>
      <point x="203" y="237" type="line"/>
      <point x="236" y="263"/>
      <point x="262" y="274"/>
      <point x="286" y="274" type="curve" smooth="yes"/>
      <point x="313" y="274"/>
      <point x="330" y="263"/>
      <point x="330" y="245" type="curve" smooth="yes"/>
      <point x="330" y="232"/>
      <point x="317" y="215"/>
      <point x="294" y="198" type="curve" smooth="yes"/>
      <point x="132" y="66" type="line"/>
    </contour>
  </outline>
</glyph>
<glyph name="uni2084" format="2">
  <advance width="600"/>
  <unicode hex="2084"/>
  <outline>
    <contour>
      <point x="262" y="0" type="line"/>
      <point x="354" y="0" type="line"/>
      <point x="369" y="73" type="line"/>
      <point x="410" y="73" type="line"/>
      <point x="427" y="147" type="line"/>
      <point x="385" y="147" type="line"/>
      <point x="428" y="350" type="line"/>
      <point x="320" y="350" type="line"/>
      <point x="112" y="150" type="line"/>
      <point x="95" y="73" type="line"/>
      <point x="278" y="73" type="line"/>
    </contour>
    <contour>
      <point x="202" y="147" type="line"/>
      <point x="317" y="259" type="line"/>
      <point x="293" y="147" type="line"/>
    </contour>
  </outline>
</glyph>
<glyph name="uni2085" format="2">
  <advance width="600"/>
  <unicode hex="2085"/>
  <outline>
    <contour>
      <point x="254" y="-5" type="curve" smooth="yes"/>
      <point x="341" y="-5"/>
      <point x="406" y="52"/>
      <point x="406" y="129" type="curve" smooth="yes"/>
      <point x="406" y="184"/>
      <point x="359" y="223"/>
      <point x="293" y="223" type="curve" smooth="yes"/>
      <point x="278" y="223"/>
      <point x="262" y="220"/>
      <point x="244" y="212" type="curve"/>
      <point x="260" y="273" type="line"/>
      <point x="418" y="273" type="line"/>
      <point x="435" y="350" type="line"/>
      <point x="199" y="350" type="line"/>
      <point x="154" y="167" type="line"/>
      <point x="214" y="143" type="line"/>
      <point x="230" y="151"/>
      <point x="242" y="154"/>
      <point x="259" y="154" type="curve" smooth="yes"/>
      <point x="288" y="154"/>
      <point x="310" y="137"/>
      <point x="310" y="114" type="curve" smooth="yes"/>
      <point x="310" y="90"/>
      <point x="285" y="70"/>
      <point x="256" y="70" type="curve" smooth="yes"/>
      <point x="230" y="70"/>
      <point x="210" y="79"/>
      <point x="175" y="106" type="curve"/>
      <point x="119" y="43" type="line"/>
      <point x="155" y="10"/>
      <point x="198" y="-5"/>
    </contour>
  </outline>
</glyph>
<glyph name="uni2087" format="2">
  <advance width="600"/>
  <unicode hex="2087"/>
  <outline>
    <contour>
      <point x="134" y="0" type="line"/>
      <point x="250" y="0" type="line"/>
      <point x="433" y="281" type="line"/>
      <point x="448" y="350" type="line"/>
      <point x="171" y="350" type="line"/>
      <point x="153" y="268" type="line"/>
      <point x="326" y="268" type="line"/>
    </contour>
  </outline>
</glyph>
<glyph name="uni2088" format="2">
  <advance width="600"/>
  <unicode hex="2088"/>
  <outline>
    <contour>
      <point x="255" y="-6" type="curve" smooth="yes"/>
      <point x="335" y="-6"/>
      <point x="401" y="44"/>
      <point x="401" y="104" type="curve" smooth="yes"/>
      <point x="401" y="137"/>
      <point x="380" y="163"/>
      <point x="347" y="173" type="curve"/>
      <point x="392" y="187"/>
      <point x="425" y="224"/>
      <point x="425" y="266" type="curve" smooth="yes"/>
      <point x="425" y="317"/>
      <point x="374" y="356"/>
      <point x="306" y="356" type="curve" smooth="yes"/>
      <point x="229" y="356"/>
      <point x="164" y="304"/>
      <point x="164" y="244" type="curve" smooth="yes"/>
      <point x="164" y="215"/>
      <point x="181" y="192"/>
      <point x="208" y="180" type="curve"/>
      <point x="159" y="169"/>
      <point x="123" y="130"/>
      <point x="123" y="84" type="curve" smooth="yes"/>
      <point x="123" y="31"/>
      <point x="177" y="-6"/>
    </contour>
    <contour>
      <point x="291" y="208" type="curve" smooth="yes"/>
      <point x="269" y="208"/>
      <point x="253" y="222"/>
      <point x="253" y="240" type="curve" smooth="yes"/>
      <point x="253" y="262"/>
      <point x="273" y="280"/>
      <point x="297" y="280" type="curve" smooth="yes"/>
      <point x="317" y="280"/>
      <point x="333" y="266"/>
      <point x="333" y="248" type="curve" smooth="yes"/>
      <point x="333" y="228"/>
      <point x="312" y="208"/>
    </contour>
    <contour>
      <point x="262" y="71" type="curve" smooth="yes"/>
      <point x="236" y="71"/>
      <point x="218" y="84"/>
      <point x="218" y="103" type="curve" smooth="yes"/>
      <point x="218" y="125"/>
      <point x="239" y="142"/>
      <point x="266" y="142" type="curve" smooth="yes"/>
      <point x="292" y="142"/>
      <point x="309" y="128"/>
      <point x="309" y="108" type="curve" smooth="yes"/>
      <point x="309" y="87"/>
      <point x="289" y="71"/>
    </contour>
  </outline>
</glyph>
<glyph name="uni2089" format="2">
  <advance width="600"/>
  <unicode hex="2089"/>
  <outline>
    <contour>
      <point x="296" y="355" type="curve" smooth="yes"/>
      <point x="218" y="355"/>
      <point x="155" y="297"/>
      <point x="155" y="226" type="curve" smooth="yes"/>
      <point x="155" y="174"/>
      <point x="194" y="138"/>
      <point x="250" y="138" type="curve" smooth="yes"/>
      <point x="285" y="138"/>
      <point x="317" y="153"/>
      <point x="340" y="179" type="curve"/>
      <point x="331" y="119"/>
      <point x="293" y="75"/>
      <point x="249" y="75" type="curve" smooth="yes"/>
      <point x="222" y="75"/>
      <point x="198" y="86"/>
      <point x="179" y="106" type="curve"/>
      <point x="124" y="41" type="line"/>
      <point x="155" y="9"/>
      <point x="191" y="-6"/>
      <point x="234" y="-6" type="curve" smooth="yes"/>
      <point x="343" y="-6"/>
      <point x="433" y="91"/>
      <point x="433" y="209" type="curve" smooth="yes"/>
      <point x="433" y="300"/>
      <point x="381" y="355"/>
    </contour>
    <contour>
      <point x="288" y="275" type="curve" smooth="yes"/>
      <point x="317" y="275"/>
      <point x="337" y="256"/>
      <point x="342" y="225" type="curve"/>
      <point x="324" y="212"/>
      <point x="304" y="205"/>
      <point x="285" y="205" type="curve" smooth="yes"/>
      <point x="261" y="205"/>
      <point x="244" y="219"/>
      <point x="244" y="238" type="curve" smooth="yes"/>
      <point x="244" y="259"/>
      <point x="263" y="275"/>
    </contour>
  </outline>
</glyph>
<glyph name="Euro" format="2">
  <advance width="600"/>
  <unicode hex="20AC"/>
  <outline>
    <contour>
      <point x="17" y="245" type="line"/>
      <point x="96" y="245" type="line"/>
      <point x="104" y="85"/>
      <point x="192" y="-11"/>
      <point x="330" y="-11" type="curve" smooth="yes"/>
      <point x="424" y="-11"/>
      <point x="504" y="33"/>
      <point x="562" y="117" type="curve"/>
      <point x="445" y="210" type="line"/>
      <point x="404" y="154"/>
      <point x="374" y="132"/>
      <point x="338" y="132" type="curve" smooth="yes"/>
      <point x="295" y="132"/>
      <point x="266" y="174"/>
      <point x="260" y="245" type="curve"/>
      <point x="353" y="245" type="line"/>
      <point x="399" y="323" type="line"/>
      <point x="260" y="323" type="line"/>
      <point x="263" y="350"/>
      <point x="265" y="364"/>
      <point x="268" y="377" type="curve"/>
      <point x="429" y="377" type="line"/>
      <point x="474" y="455" type="line"/>
      <point x="292" y="455" type="line"/>
      <point x="323" y="526"/>
      <point x="367" y="568"/>
      <point x="411" y="568" type="curve" smooth="yes"/>
      <point x="447" y="568"/>
      <point x="478" y="542"/>
      <point x="502" y="491" type="curve"/>
      <point x="648" y="548" type="line"/>
      <point x="602" y="654"/>
      <point x="520" y="711"/>
      <point x="415" y="711" type="curve" smooth="yes"/>
      <point x="284" y="711"/>
      <point x="173" y="613"/>
      <point x="124" y="455" type="curve"/>
      <point x="61" y="455" type="line"/>
      <point x="45" y="377" type="line"/>
      <point x="105" y="377" type="line"/>
      <point x="103" y="364"/>
      <point x="101" y="350"/>
      <point x="98" y="323" type="curve"/>
      <point x="33" y="323" type="line"/>
    </contour>
  </outline>
</glyph>
<glyph name="uni2191" format="2">
  <advance width="600"/>
  <unicode hex="2191"/>
  <outline>
    <contour>
      <point x="254" y="0" type="line"/>
      <point x="405" y="0" type="line"/>
      <point x="405" y="472" type="line"/>
      <point x="539" y="309" type="line"/>
      <point x="634" y="394" type="line"/>
      <point x="330" y="750" type="line"/>
      <point x="25" y="393" type="line"/>
      <point x="118" y="311" type="line"/>
      <point x="254" y="476" type="line"/>
    </contour>
  </outline>
</glyph>
<glyph name="minus" format="2">
  <advance width="600"/>
  <unicode hex="2212"/>
  <outline>
    <contour>
      <point x="83" y="295" type="line"/>
      <point x="533" y="295" type="line"/>
      <point x="559" y="419" type="line"/>
      <point x="109" y="419" type="line"/>
    </contour>
  </outline>
</glyph>
<glyph name="fl" format="2">
  <advance width="600"/>
  <unicode hex="FB02"/>
  <outline>
    <contour>
      <point x="49" y="0" type="line"/>
      <point x="201" y="0" type="line"/>
      <point x="284" y="391" type="line"/>
      <point x="394" y="391" type="line"/>
      <point x="421" y="516" type="line"/>
      <point x="311" y="516" type="line"/>
      <point x="325" y="581" type="line" smooth="yes"/>
      <point x="333" y="619"/>
      <point x="356" y="637"/>
      <point x="395" y="637" type="curve" smooth="yes"/>
      <point x="410" y="637"/>
      <point x="422" y="635"/>
      <point x="445" y="631" type="curve"/>
      <point x="473" y="760" type="line"/>
      <point x="455" y="765"/>
      <point x="424" y="770"/>
      <point x="399" y="770" type="curve" smooth="yes"/>
      <point x="278" y="770"/>
      <point x="199" y="703"/>
      <point x="172" y="580" type="curve" smooth="yes"/>
      <point x="159" y="516" type="line"/>
      <point x="72" y="516" type="line"/>
      <point x="45" y="391" type="line"/>
      <point x="132" y="391" type="line"/>
    </contour>
    <contour>
      <point x="358" y="0" type="line"/>
      <point x="510" y="0" type="line"/>
      <point x="667" y="737" type="line"/>
      <point x="510" y="714" type="line"/>
    </contour>
  </outline>
</glyph>
<glyph name="uniFFFD" format="2">
  <advance width="600"/>
  <unicode hex="FFFD"/>
  <outline>
    <contour>
      <point x="100" y="-100" type="line"/>
      <point x="494" y="-100" type="line"/>
      <point x="494" y="750" type="line"/>
      <point x="100" y="750" type="line"/>
    </contour>
  </outline>
</glyph>
<glyph name="a.school" format="2">
  <advance width="600"/>
  <anchor x="321" y="516" name="top"/>
  <anchor x="486" y="0" name="bottom"/>
  <outline>
    <contour>
      <point x="209" y="-3" type="curve"/>
      <point x="263" y="-3"/>
      <point x="305" y="17"/>
      <point x="342" y="59" type="curve"/>
      <point x="329" y="0" type="line"/>
      <point x="486" y="0" type="line"/>
      <point x="595" y="516" type="line"/>
      <point x="437" y="516" type="line"/>
      <point x="425" y="458" type="line"/>
      <point x="396" y="496"/>
      <point x="345" y="519"/>
      <point x="291" y="519" type="curve" smooth="yes"/>
      <point x="150" y="519"/>
      <point x="31" y="384"/>
      <point x="31" y="226" type="curve" smooth="yes"/>
      <point x="31" y="99"/>
      <point x="106" y="-3"/>
    </contour>
    <contour>
      <point x="279" y="124" type="curve"/>
      <point x="219" y="124"/>
      <point x="186" y="173"/>
      <point x="186" y="236" type="curve" smooth="yes"/>
      <point x="186" y="322"/>
      <point x="241" y="389"/>
      <point x="315" y="389" type="curve" smooth="yes"/>
      <point x="350" y="389"/>
      <point x="379" y="375"/>
      <point x="402" y="349" type="curve"/>
      <point x="362" y="159" type="line"/>
      <point x="338" y="137"/>
      <point x="308" y="124"/>
    </contour>
  </outline>
</glyph>
<glyph name="aogonek.school" format="2">
  <advance width="600"/>
  <outline>
    <contour>
      <point x="377" y="-231" type="curve" smooth="yes"/>
      <point x="412" y="-231"/>
      <point x="448" y="-222"/>
      <point x="473" y="-208" type="curve"/>
      <point x="468" y="-138" type="line"/>
      <point x="457" y="-145"/>
      <point x="439" y="-149"/>
      <point x="421" y="-149" type="curve" smooth="yes"/>
      <point x="396" y="-149"/>
      <point x="381" y="-136"/>
      <point x="381" y="-113" type="curve" smooth="yes"/>
      <point x="381" y="-76"/>
      <point x="416" y="-38"/>
      <point x="486" y="0" type="curve"/>
      <point x="595" y="516" type="line"/>
      <point x="437" y="516" type="line"/>
      <point x="425" y="458" type="line"/>
      <point x="396" y="496"/>
      <point x="345" y="519"/>
      <point x="291" y="519" type="curve" smooth="yes"/>
      <point x="150" y="519"/>
      <point x="31" y="384"/>
      <point x="31" y="226" type="curve" smooth="yes"/>
      <point x="31" y="99"/>
      <point x="106" y="-3"/>
      <point x="209" y="-3" type="curve"/>
      <point x="263" y="-3"/>
      <point x="305" y="17"/>
      <point x="342" y="59" type="curve"/>
      <point x="329" y="0" type="line"/>
      <point x="405" y="0" type="line"/>
      <point x="327" y="-47"/>
      <point x="289" y="-97"/>
      <point x="289" y="-153" type="curve" smooth="yes"/>
      <point x="289" y="-201"/>
      <point x="323" y="-231"/>
    </contour>
    <contour>
      <point x="279" y="124" type="curve"/>
      <point x="219" y="124"/>
      <point x="186" y="173"/>
      <point x="186" y="236" type="curve" smooth="yes"/>
      <point x="186" y="322"/>
      <point x="241" y="389"/>
      <point x="315" y="389" type="curve" smooth="yes"/>
      <point x="350" y="389"/>
      <point x="379" y="375"/>
      <point x="402" y="349" type="curve"/>
      <point x="362" y="159" type="line"/>
      <point x="338" y="137"/>
      <point x="308" y="124"/>
    </contour>
  </outline>
</glyph>
<glyph name="commaaccent" format="2">
  <advance width="600"/>
  <outline>
    <contour>
      <point x="72" y="-305" type="line"/>
      <point x="181" y="-305" type="line"/>
      <point x="321" y="-90" type="line"/>
      <point x="180" y="-90" type="line"/>
    </contour>
  </outline>
</glyph>
<glyph name="cordinal" format="2">
  <advance width="600"/>
  <outline>
    <contour>
      <point x="378" y="294" type="curve" smooth="yes"/>
      <point x="440" y="294"/>
      <point x="493" y="318"/>
      <point x="538" y="359" type="curve"/>
      <point x="470" y="442" type="line"/>
      <point x="445" y="418"/>
      <point x="414" y="403"/>
      <point x="386" y="403" type="curve" smooth="yes"/>
      <point x="337" y="403"/>
      <point x="307" y="437"/>
      <point x="307" y="488" type="curve"/>
      <point x="307" y="548"/>
      <point x="350" y="598"/>
      <point x="403" y="598" type="curve"/>
      <point x="438" y="598"/>
      <point x="464" y="580"/>
      <point x="486" y="548" type="curve"/>
      <point x="570" y="624" type="line"/>
      <point x="534" y="677"/>
      <point x="474" y="708"/>
      <point x="405" y="708" type="curve"/>
      <point x="283" y="708"/>
      <point x="185" y="607"/>
      <point x="185" y="481" type="curve"/>
      <point x="185" y="374"/>
      <point x="263" y="294"/>
    </contour>
  </outline>
</glyph>
<glyph name="exclamdown.cap" format="2">
  <advance width="600"/>
  <outline>
    <contour>
      <point x="413" y="486" type="line"/>
      <point x="295" y="486" type="line"/>
      <point x="173" y="1" type="line"/>
      <point x="329" y="1" type="line"/>
    </contour>
    <contour>
      <point x="392" y="739" type="curve" smooth="yes"/>
      <point x="336" y="739"/>
      <point x="286" y="686"/>
      <point x="286" y="627" type="curve" smooth="yes"/>
      <point x="286" y="577"/>
      <point x="321" y="538"/>
      <point x="368" y="538" type="curve" smooth="yes"/>
      <point x="426" y="538"/>
      <point x="476" y="589"/>
      <point x="476" y="650" type="curve" smooth="yes"/>
      <point x="476" y="700"/>
      <point x="441" y="739"/>
    </contour>
  </outline>
</glyph>
<glyph name="gcommaaccent.alt" format="2">
  <advance width="600"/>
  <outline>
    <contour>
      <point x="532" y="842" type="line"/>
      <point x="423" y="842" type="line"/>
      <point x="283" y="627" type="line"/>
      <point x="424" y="627" type="line"/>
    </contour>
    <component base="g.alt"/>
  </outline>
</glyph>
<glyph name="gravecomb" format="2">
  <anchor x="356" y="516" name="_top"/>
  <outline>
    <contour>
      <point x="325" y="601" type="line"/>
      <point x="466" y="601" type="line"/>
      <point x="330" y="747" type="line"/>
      <point x="136" y="747" type="line"/>
    </contour>
  </outline>
</glyph>
<glyph name="questiondown.cap" format="2">
  <advance width="600"/>
  <outline>
    <contour>
      <point x="434" y="453" type="curve"/>
      <point x="307" y="453" type="line"/>
      <point x="298" y="366"/>
      <point x="57" y="350"/>
      <point x="57" y="158" type="curve" smooth="yes"/>
      <point x="57" y="57"/>
      <point x="144" y="-13"/>
      <point x="269" y="-13" type="curve" smooth="yes"/>
      <point x="374" y="-13"/>
      <point x="475" y="45"/>
      <point x="529" y="142" type="curve"/>
      <point x="416" y="198" type="line"/>
      <point x="390" y="152"/>
      <point x="341" y="122"/>
      <point x="290" y="122" type="curve" smooth="yes"/>
      <point x="240" y="122"/>
      <point x="209" y="145"/>
      <point x="209" y="182" type="curve" smooth="yes"/>
      <point x="209" y="289"/>
      <point x="412" y="276"/>
    </contour>
    <contour>
      <point x="405" y="708" type="curve" smooth="yes"/>
      <point x="349" y="708"/>
      <point x="299" y="655"/>
      <point x="299" y="596" type="curve" smooth="yes"/>
      <point x="299" y="546"/>
      <point x="334" y="507"/>
      <point x="381" y="507" type="curve" smooth="yes"/>
      <point x="439" y="507"/>
      <point x="489" y="558"/>
      <point x="489" y="619" type="curve" smooth="yes"/>
      <point x="489" y="669"/>
      <point x="454" y="708"/>
    </contour>
  </outline>
</glyph>
<glyph name="reversequotedblleft" format="2">
  <advance width="600"/>
  <outline>
    <contour>
      <point x="389" y="446" type="line"/>
      <point x="265" y="750" type="line"/>
      <point x="90" y="750" type="line"/>
      <point x="275" y="446" type="line"/>
    </contour>
    <contour>
      <point x="618" y="446" type="line"/>
      <point x="494" y="750" type="line"/>
      <point x="319" y="750" type="line"/>
      <point x="504" y="446" type="line"/>
    </contour>
  </outline>
</glyph>
<glyph name="uni0302" format="2">
  <anchor x="356" y="516" name="_top"/>
  <outline>
    <contour>
      <point x="170" y="599" type="line"/>
      <point x="297" y="599" type="line"/>
      <point x="393" y="682" type="line"/>
      <point x="457" y="599" type="line"/>
      <point x="574" y="599" type="line"/>
      <point x="479" y="750" type="line"/>
      <point x="326" y="750" type="line"/>
    </contour>
  </outline>
</glyph>
<glyph name="uni0306" format="2">
  <anchor x="356" y="516" name="_top"/>
  <outline>
    <contour>
      <point x="377" y="592" type="curve" smooth="yes"/>
      <point x="470" y="592"/>
      <point x="543" y="641"/>
      <point x="582" y="728" type="curve"/>
      <point x="490" y="756" type="line"/>
      <point x="465" y="706"/>
      <point x="427" y="679"/>
      <point x="382" y="679" type="curve" smooth="yes"/>
      <point x="333" y="679"/>
      <point x="306" y="707"/>
      <point x="301" y="764" type="curve"/>
      <point x="213" y="742" type="line"/>
      <point x="217" y="649"/>
      <point x="279" y="592"/>
    </contour>
  </outline>
</glyph>
<glyph name="uni0307" format="2">
  <anchor x="356" y="516" name="_top"/>
  <outline>
    <contour>
      <point x="373" y="595" type="curve" smooth="yes"/>
      <point x="427" y="595"/>
      <point x="472" y="640"/>
      <point x="472" y="693" type="curve" smooth="yes"/>
      <point x="472" y="738"/>
      <point x="436" y="773"/>
      <point x="391" y="773" type="curve" smooth="yes"/>
      <point x="337" y="773"/>
      <point x="292" y="728"/>
      <point x="292" y="675" type="curve" smooth="yes"/>
      <point x="292" y="630"/>
      <point x="328" y="595"/>
    </contour>
  </outline>
</glyph>
<glyph name="uni0308" format="2">
  <anchor x="356" y="516" name="_top"/>
  <outline>
    <contour>
      <point x="260" y="602" type="curve" smooth="yes"/>
      <point x="306" y="602"/>
      <point x="348" y="645"/>
      <point x="348" y="694" type="curve" smooth="yes"/>
      <point x="348" y="735"/>
      <point x="318" y="766"/>
      <point x="280" y="766" type="curve" smooth="yes"/>
      <point x="232" y="766"/>
      <point x="190" y="724"/>
      <point x="190" y="674" type="curve" smooth="yes"/>
      <point x="190" y="633"/>
      <point x="220" y="602"/>
    </contour>
    <contour>
      <point x="486" y="602" type="curve" smooth="yes"/>
      <point x="533" y="602"/>
      <point x="574" y="645"/>
      <point x="574" y="694" type="curve" smooth="yes"/>
      <point x="574" y="735"/>
      <point x="545" y="766"/>
      <point x="506" y="766" type="curve" smooth="yes"/>
      <point x="458" y="766"/>
      <point x="416" y="723"/>
      <point x="416" y="674" type="curve" smooth="yes"/>
      <point x="416" y="633"/>
      <point x="447" y="602"/>
    </contour>
  </outline>
</glyph>
<glyph name="uni030B" format="2">
  <anchor x="356" y="516" name="_top"/>
  <outline>
    <contour>
      <point x="185" y="603" type="line"/>
      <point x="303" y="603" type="line"/>
      <point x="487" y="746" type="line"/>
      <point x="347" y="746" type="line"/>
    </contour>
    <contour>
      <point x="407" y="603" type="line"/>
      <point x="517" y="603" type="line"/>
      <point x="712" y="746" type="line"/>
      <point x="569" y="746" type="line"/>
    </contour>
  </outline>
</glyph>
<glyph name="uni030C" format="2">
  <anchor x="356" y="516" name="_top"/>
  <outline>
    <contour>
      <point x="294" y="604" type="line"/>
      <point x="447" y="604" type="line"/>
      <point x="602" y="755" type="line"/>
      <point x="476" y="755" type="line"/>
      <point x="380" y="673" type="line"/>
      <point x="316" y="755" type="line"/>
      <point x="198" y="755" type="line"/>
    </contour>
  </outline>
</glyph>
<glyph name="uni0326" format="2">
  <anchor x="262" y="0" name="_bottom"/>
  <outline>
    <contour>
      <point x="72" y="-305" type="line"/>
      <point x="181" y="-305" type="line"/>
      <point x="321" y="-90" type="line"/>
      <point x="180" y="-90" type="line"/>
    </contour>
  </outline>
</glyph>
